<svg xmlns="http://www.w3.org/2000/svg"  viewBox="0 0 64 64" width="128px" height="128px"><radialGradient id="6QanQQ9IaPtB6nirglaGTa" cx="30.125" cy="27.125" r="33.699" gradientUnits="userSpaceOnUse" spreadMethod="reflect"><stop offset="0" stop-color="#c5f1ff"/><stop offset=".35" stop-color="#cdf3ff"/><stop offset=".907" stop-color="#e4faff"/><stop offset="1" stop-color="#e9fbff"/></radialGradient><path fill="url(#6QanQQ9IaPtB6nirglaGTa)" d="M45,8L45,8c2.209,0,4-1.791,4-4v0c0-2.209-1.791-4-4-4h0c-2.209,0-4,1.791-4,4v0 C41,6.209,42.791,8,45,8z"/><radialGradient id="6QanQQ9IaPtB6nirglaGTb" cx="31" cy="32" r="31.504" gradientUnits="userSpaceOnUse" spreadMethod="reflect"><stop offset="0" stop-color="#c5f1ff"/><stop offset=".35" stop-color="#cdf3ff"/><stop offset=".907" stop-color="#e4faff"/><stop offset="1" stop-color="#e9fbff"/></radialGradient><path fill="url(#6QanQQ9IaPtB6nirglaGTb)" d="M62,47.5L62,47.5c0-2.485-2.015-4.5-4.5-4.5H32c-1.105,0-2-0.895-2-2V22c0-1.105,0.895-2,2-2 h10c2.209,0,4-1.791,4-4v0c0-2.209-1.791-4-4-4H32c-1.105,0-2-0.895-2-2v0c0-1.105,0.895-2,2-2h1c2.209,0,4-1.791,4-4v0 c0-2.209-1.791-4-4-4H8.5C5.462,0,3,2.462,3,5.5v0C3,8.538,5.462,11,8.5,11h3c3.038,0,5.5,2.462,5.5,5.5v0 c0,3.038-2.462,5.5-5.5,5.5h-6C2.462,22,0,24.462,0,27.5v0C0,30.538,2.462,33,5.5,33H14c1.657,0,3,1.343,3,3v0c0,1.657-1.343,3-3,3 H6.5C4.015,39,2,41.015,2,43.5v0C2,45.985,4.015,48,6.5,48H14c2.209,0,4,1.791,4,4v0c0,2.209-1.791,4-4,4h-1c-2.209,0-4,1.791-4,4v0 c0,2.209,1.791,4,4,4h40c2.209,0,4-1.791,4-4v0c0-2.209-1.791-4-4-4h-3c-1.105,0-2-0.895-2-2v0c0-1.105,0.895-2,2-2h7.5 C59.985,52,62,49.985,62,47.5z"/><linearGradient id="6QanQQ9IaPtB6nirglaGTc" x1="32" x2="32" y1="40.994" y2="-2.006" gradientUnits="userSpaceOnUse" spreadMethod="reflect"><stop offset="0" stop-color="#ff8b67"/><stop offset=".847" stop-color="#ffa76a"/><stop offset="1" stop-color="#ffad6b"/><stop offset="1" stop-color="#ffad6b"/></linearGradient><path fill="url(#6QanQQ9IaPtB6nirglaGTc)" d="M26,13L26,13c0-2.209-1.791-4-4-4H12c-2.209,0-4,1.791-4,4v34c0,2.761,2.239,5,5,5h38 c2.761,0,5-2.239,5-5V21c0-2.761-2.239-5-5-5H29C27.343,16,26,14.657,26,13z"/><linearGradient id="6QanQQ9IaPtB6nirglaGTd" x1="32" x2="32" y1="52" y2="16" gradientUnits="userSpaceOnUse" spreadMethod="reflect"><stop offset="0" stop-color="#ffc050"/><stop offset=".004" stop-color="#ffc050"/><stop offset=".641" stop-color="#ffbe75"/><stop offset="1" stop-color="#ffbd85"/><stop offset="1" stop-color="#ffbd85"/></linearGradient><path fill="url(#6QanQQ9IaPtB6nirglaGTd)" d="M13,16h38c2.761,0,5,2.239,5,5v26c0,2.761-2.239,5-5,5H13c-2.761,0-5-2.239-5-5V21 C8,18.239,10.239,16,13,16z"/><linearGradient id="6QanQQ9IaPtB6nirglaGTe" x1="27" x2="27" y1="52" y2="16" gradientUnits="userSpaceOnUse" spreadMethod="reflect"><stop offset="0" stop-color="#ffc96a"/><stop offset=".004" stop-color="#ffc96a"/><stop offset=".578" stop-color="#ffc887"/><stop offset="1" stop-color="#ffc797"/><stop offset="1" stop-color="#ffc797"/></linearGradient><path fill="url(#6QanQQ9IaPtB6nirglaGTe)" d="M46,19.5L46,19.5c0-1.933-1.567-3.5-3.5-3.5H13c-2.761,0-5,2.239-5,5v2v8v7v7v2 c0,2.761,2.239,5,5,5h12.5c1.933,0,3.5-1.567,3.5-3.5v0c0-1.933-1.567-3.5-3.5-3.5h-4c-1.933,0-3.5-1.567-3.5-3.5v0 c0-1.933,1.567-3.5,3.5-3.5h8c1.933,0,3.5-1.567,3.5-3.5v0c0-1.933-1.567-3.5-3.5-3.5H25c-2.209,0-4-1.791-4-4v0 c0-2.209,1.791-4,4-4h17.5C44.433,23,46,21.433,46,19.5z"/><linearGradient id="6QanQQ9IaPtB6nirglaGTf" x1="32" x2="32" y1="43" y2="26" gradientUnits="userSpaceOnUse" spreadMethod="reflect"><stop offset="0" stop-color="#ff5840"/><stop offset=".007" stop-color="#ff5840"/><stop offset=".989" stop-color="#fa528c"/><stop offset="1" stop-color="#fa528c"/></linearGradient><path fill="url(#6QanQQ9IaPtB6nirglaGTf)" d="M41.881,30.125c-0.427-2.046-2.119-3.672-4.176-4.039c-2.112-0.377-4.029,0.508-5.161,2.02 c-0.266,0.355-0.821,0.355-1.087,0c-1.132-1.512-3.049-2.397-5.161-2.02c-2.057,0.367-3.749,1.993-4.176,4.039 c-0.403,1.93,0.25,3.726,1.486,4.921l-0.002,0.001l7.237,7.469c0.638,0.645,1.681,0.645,2.319,0l7.233-7.467l-0.001,0 C41.631,33.853,42.284,32.057,41.881,30.125z"/></svg>