<svg xmlns="http://www.w3.org/2000/svg"  viewBox="0 0 100 100" width="100px" height="100px"><path fill="#c8ede6" d="M87.234,55.551c0.3-0.616,0.566-1.264,0.796-1.943c2.633-7.77-1.349-17.078-9.733-19.325 C77.391,22.9,69.391,15.09,60.356,13.758c-10.341-1.525-19.814,5.044-22.966,15.485c-3.799-1.346-7.501-1.182-10.99,0.857 c-1.583,0.732-3.031,1.812-4.33,3.233c-1.907,2.086-3.147,4.719-3.652,7.495c-0.748,0.118-1.483,0.236-2.176,0.484 c-4.04,1.449-6.589,4.431-7.288,8.923c-0.435,2.797,0.443,5.587,0.933,6.714c1.935,4.455,6.422,6.98,10.981,6.312 c0.227-0.033,0.557,0.069,0.752,0.233c0.241,7.12,3.698,13.417,8.884,17.014c8.321,5.772,19.027,3.994,25.781-3.921 c2.894,2.96,6.338,4.398,10.384,3.876c4.023-0.519,7.147-2.739,9.426-6.349c1.053,0.283,2.051,0.691,3.083,0.804 c4.042,0.442,7.297-1.184,9.732-4.8c0.083-0.124,0.203-0.219,0.306-0.328c0.348-0.798,0.696-1.596,1.044-2.394 c0.155-1.211,0.429-2.423,0.443-3.632C90.742,60.508,89.411,57.54,87.234,55.551z"/><path fill="#fdfcef" d="M32.337,31.423c0,0,11.691,0,11.762,0c2.7,0,4.888-2.189,4.888-4.889 c0-2.355-1.666-4.321-3.884-4.784c0.026-0.206,0.043-0.415,0.043-0.628c0-2.796-2.267-5.063-5.063-5.063 c-1.651,0-3.113,0.794-4.037,2.017c-0.236-3.113-3.017-5.514-6.27-5.116c-2.379,0.291-4.346,2.13-4.784,4.486 c-0.14,0.756-0.126,1.489,0.014,2.177c-0.638-0.687-1.546-1.119-2.557-1.119c-1.85,0-3.361,1.441-3.48,3.261 c-0.84-0.186-1.754-0.174-2.717,0.188c-1.84,0.691-3.15,2.423-3.227,4.387c-0.109,2.789,2.12,5.085,4.885,5.085 c0.21,0,0.948,0,1.118,0h10.151"/><path fill="#472b29" d="M44.099,31.923H32.337c-0.276,0-0.5-0.224-0.5-0.5s0.224-0.5,0.5-0.5h11.762 c2.42,0,4.389-1.969,4.389-4.389c0-2.066-1.466-3.873-3.486-4.295c-0.255-0.053-0.426-0.293-0.394-0.552 c0.023-0.186,0.039-0.374,0.039-0.565c0-2.517-2.047-4.563-4.562-4.563c-1.438,0-2.765,0.663-3.638,1.818 c-0.125,0.166-0.338,0.237-0.54,0.178c-0.199-0.059-0.342-0.234-0.357-0.441c-0.104-1.377-0.779-2.671-1.85-3.549 c-1.083-0.888-2.456-1.282-3.86-1.109c-2.166,0.266-3.956,1.943-4.353,4.081c-0.124,0.667-0.12,1.335,0.013,1.986 c0.044,0.22-0.062,0.442-0.262,0.544c-0.2,0.104-0.443,0.06-0.595-0.104c-0.575-0.618-1.353-0.959-2.19-0.959 c-1.569,0-2.878,1.228-2.981,2.794c-0.01,0.146-0.082,0.279-0.199,0.366c-0.117,0.089-0.268,0.12-0.408,0.089 c-0.841-0.185-1.637-0.132-2.433,0.167c-1.669,0.627-2.835,2.209-2.903,3.938c-0.047,1.207,0.387,2.35,1.221,3.218 c0.835,0.869,1.959,1.348,3.164,1.348h11.269c0.276,0,0.5,0.224,0.5,0.5s-0.224,0.5-0.5,0.5H17.912 c-1.479,0-2.858-0.588-3.884-1.654c-1.025-1.066-1.558-2.469-1.5-3.95c0.083-2.126,1.51-4.069,3.55-4.835 c0.8-0.301,1.626-0.398,2.468-0.299c0.377-1.822,1.998-3.182,3.905-3.182c0.684,0,1.354,0.18,1.944,0.51 c0-0.386,0.035-0.772,0.106-1.159c0.477-2.562,2.621-4.573,5.215-4.891c1.679-0.205,3.32,0.266,4.616,1.328 c1.003,0.823,1.716,1.951,2.038,3.193c1.012-0.916,2.319-1.426,3.714-1.426c3.067,0,5.562,2.496,5.562,5.563 c0,0.083-0.002,0.166-0.007,0.248c2.254,0.673,3.848,2.776,3.848,5.164C49.488,29.507,47.071,31.923,44.099,31.923z"/><path fill="#fdfcef" d="M29.504,20.655c-1.808-0.119-3.365,1.13-3.476,2.789c-0.014,0.206-0.005,0.409,0.025,0.606 c-0.349-0.394-0.865-0.661-1.458-0.7c-1.085-0.071-2.022,0.645-2.158,1.62c-0.197-0.054-0.403-0.09-0.616-0.104 c-1.582-0.104-2.944,0.989-3.042,2.441"/><path fill="#472b29" d="M18.78,27.556c-0.006,0-0.012,0-0.017-0.001c-0.138-0.009-0.242-0.128-0.233-0.266 c0.107-1.587,1.588-2.789,3.308-2.674c0.137,0.009,0.273,0.026,0.409,0.053c0.274-0.968,1.256-1.645,2.366-1.567 c0.425,0.027,0.823,0.159,1.164,0.382c0-0.019,0.002-0.037,0.003-0.056c0.12-1.795,1.787-3.16,3.742-3.021 c0.138,0.009,0.242,0.128,0.233,0.266s-0.124,0.255-0.266,0.232c-1.651-0.105-3.108,1.037-3.21,2.557 c-0.012,0.184-0.004,0.37,0.023,0.553c0.017,0.109-0.041,0.217-0.141,0.264s-0.219,0.022-0.293-0.061 c-0.323-0.365-0.78-0.584-1.287-0.617c-0.951-0.034-1.775,0.556-1.894,1.404c-0.01,0.071-0.05,0.135-0.11,0.175 c-0.06,0.039-0.133,0.051-0.204,0.032c-0.187-0.051-0.377-0.083-0.567-0.097c-1.44-0.092-2.687,0.896-2.775,2.209 C19.02,27.455,18.91,27.556,18.78,27.556z"/><path fill="#fdfcef" d="M46.079,22.323c-1.699-0.801-3.664-0.234-4.389,1.267c-0.09,0.186-0.157,0.379-0.201,0.574"/><path fill="#472b29" d="M41.489,24.414c-0.018,0-0.037-0.002-0.056-0.006c-0.134-0.031-0.219-0.165-0.188-0.3 c0.049-0.217,0.123-0.428,0.219-0.627c0.783-1.621,2.902-2.239,4.721-1.385c0.125,0.06,0.179,0.208,0.12,0.333 c-0.059,0.126-0.209,0.176-0.333,0.12c-1.574-0.744-3.394-0.227-4.058,1.149c-0.08,0.165-0.141,0.34-0.182,0.521 C41.706,24.336,41.603,24.414,41.489,24.414z"/><path fill="#fff" d="M17.899,57H7.869c-0.276,0-0.5-0.224-0.5-0.5s0.224-0.5,0.5-0.5h10.03c0.276,0,0.5,0.224,0.5,0.5 S18.176,57,17.899,57z M21.28,56.5c0-0.276-0.224-0.5-0.5-0.5h-1.446c-0.276,0-0.5,0.224-0.5,0.5s0.224,0.5,0.5,0.5h1.446 C21.057,57,21.28,56.776,21.28,56.5z M25.335,56.5c0-0.276-0.224-0.5-0.5-0.5h-2.546c-0.276,0-0.5,0.224-0.5,0.5s0.224,0.5,0.5,0.5 h2.546C25.112,57,25.335,56.776,25.335,56.5z M25.335,58.5c0-0.276-0.224-0.5-0.5-0.5h-9.616c-0.276,0-0.5,0.224-0.5,0.5 s0.224,0.5,0.5,0.5h9.616C25.112,59,25.335,58.776,25.335,58.5z M13.987,58.5c0-0.276-0.224-0.5-0.5-0.5h-0.58 c-0.276,0-0.5,0.224-0.5,0.5s0.224,0.5,0.5,0.5h0.58C13.763,59,13.987,58.776,13.987,58.5z M11.611,58.5c0-0.276-0.224-0.5-0.5-0.5 H9.654c-0.276,0-0.5,0.224-0.5,0.5s0.224,0.5,0.5,0.5h1.457C11.387,59,11.611,58.776,11.611,58.5z M20.746,54.5 c0-0.276-0.224-0.5-0.5-0.5h-5.027c-0.276,0-0.5,0.224-0.5,0.5s0.224,0.5,0.5,0.5h5.027C20.523,55,20.746,54.776,20.746,54.5z M20.746,52.5c0-0.276-0.224-0.5-0.5-0.5h-1.257c-0.276,0-0.5,0.224-0.5,0.5s0.224,0.5,0.5,0.5h1.257 C20.523,53,20.746,52.776,20.746,52.5z M17.477,60.5c0-0.276-0.224-0.5-0.5-0.5h-1.758c-0.276,0-0.5,0.224-0.5,0.5 s0.224,0.5,0.5,0.5h1.758C17.254,61,17.477,60.776,17.477,60.5z"/><path fill="#fff" d="M77.744,36h-10.03c-0.276,0-0.5-0.224-0.5-0.5s0.224-0.5,0.5-0.5h10.031c0.276,0,0.5,0.224,0.5,0.5 S78.021,36,77.744,36z M81.125,35.5c0-0.276-0.224-0.5-0.5-0.5h-1.446c-0.276,0-0.5,0.224-0.5,0.5s0.224,0.5,0.5,0.5h1.446 C80.902,36,81.125,35.776,81.125,35.5z M85.18,35.5c0-0.276-0.224-0.5-0.5-0.5h-2.546c-0.276,0-0.5,0.224-0.5,0.5 s0.224,0.5,0.5,0.5h2.546C84.956,36,85.18,35.776,85.18,35.5z M83.154,31.5c0-0.276-0.224-0.5-0.5-0.5h-9.616 c-0.276,0-0.5,0.224-0.5,0.5s0.224,0.5,0.5,0.5h9.616C82.93,32,83.154,31.776,83.154,31.5z M71.806,31.5c0-0.276-0.224-0.5-0.5-0.5 h-0.58c-0.276,0-0.5,0.224-0.5,0.5s0.224,0.5,0.5,0.5h0.58C71.583,32,71.806,31.776,71.806,31.5z M69.429,31.5 c0-0.276-0.224-0.5-0.5-0.5h-1.456c-0.276,0-0.5,0.224-0.5,0.5s0.224,0.5,0.5,0.5h1.456C69.206,32,69.429,31.776,69.429,31.5z M80.591,33.5c0-0.276-0.224-0.5-0.5-0.5h-5.027c-0.276,0-0.5,0.224-0.5,0.5s0.224,0.5,0.5,0.5h5.027 C80.367,34,80.591,33.776,80.591,33.5z M80.591,31.5c0-0.276-0.224-0.5-0.5-0.5h-1.257c-0.276,0-0.5,0.224-0.5,0.5 s0.224,0.5,0.5,0.5h1.257C80.367,32,80.591,31.776,80.591,31.5z M74.108,33.5c0-0.276-0.224-0.5-0.5-0.5H71.85 c-0.276,0-0.5,0.224-0.5,0.5s0.224,0.5,0.5,0.5h1.758C73.885,34,74.108,33.776,74.108,33.5z"/><path fill="#c0e5e4" d="M70,74H31c0,0,9.1-5.093,11.7-8.913C45.3,61.267,62,66,62,66L70,74z"/><path fill="#ccaf9b" d="M63.223,50.847c0,0-2.487,10.612-1.244,16.508c-3.473,2.358-4.652,3.537-8.189,5.896 c-3.537,0-7.075,0-7.075,0s-2.358-4.716-4.716-8.254c0.311-2.892,1.195-7.075,1.195-7.075L63.223,50.847z"/><path fill="#472b29" d="M69.4,74.7H30.868l1.717-1.264c0.061-0.045,5.916-4.371,8.903-7.943l-0.212-0.32l0.027-0.252 c0.311-2.894,1.17-6.972,1.206-7.144l0.082-0.385l21.605-7.632l-0.292,1.245c-0.021,0.088-1.979,8.551-1.494,14.384l0.007,0.003 L69.4,74.7z M35.065,73.3H66.6l-5.023-6.69l-0.46-0.125l-0.052-0.475c-0.526-4.812,0.652-11.374,1.209-14.085L43.801,58.45 c-0.215,1.057-0.812,4.08-1.078,6.374l0.49,0.754l-0.31,0.394C40.83,68.604,37.186,71.631,35.065,73.3z"/><path fill="#ccaf9b" d="M66.75,39.583c1.156-0.13,3.548,0.652,3.548,4.189c0,7.969-7.075,8.254-7.075,8.254 s-0.947,4.599-3.537,7.075s-11.791,7.075-11.791,7.075s-6.19,2.413-8.549-2.095c-1.179-2.254-3.874-6.034-4.422-9.696 c-1.179-7.889-1.179-18.867-1.179-18.867s0.247-7.142,3.91-9.476c3.663-2.334,14.653-7.003,21.98-2.334S67.727,33.831,66.75,39.583 z"/><path fill="#472b29" d="M44.388,67.518c-2.142,0-4.415-0.728-5.662-3.113c-0.267-0.51-0.613-1.1-0.994-1.749 c-1.291-2.2-3.058-5.214-3.5-8.168c-1.173-7.85-1.187-18.859-1.187-18.97c0.011-0.331,0.305-7.563,4.234-10.067 c3.423-2.182,14.949-7.295,22.732-2.333c7.748,4.936,8.29,10.699,7.552,15.801c0.623,0.104,1.325,0.382,1.94,0.932 c0.682,0.61,1.495,1.786,1.495,3.923c0,7.198-5.447,8.621-7.206,8.892c-0.331,1.299-1.393,4.812-3.622,6.942 c-2.636,2.52-11.583,7.006-11.962,7.195C47.237,67.182,45.842,67.518,44.388,67.518z M52.083,22.398 c-5.834,0-11.796,2.796-14.052,4.233c-3.307,2.106-3.584,8.843-3.586,8.91c0,0.085,0.014,10.993,1.172,18.738 c0.401,2.686,2.021,5.447,3.322,7.667c0.394,0.671,0.751,1.281,1.027,1.809c2.044,3.906,7.619,1.79,7.675,1.768 c0.032-0.02,9.077-4.555,11.561-6.929c2.397-2.292,3.326-6.666,3.335-6.71l0.11-0.532l0.545-0.025 c0.262-0.012,6.405-0.376,6.405-7.555c0-1.3-0.346-2.269-1.028-2.879c-0.593-0.53-1.308-0.666-1.742-0.615l-0.923,0.104 l0.156-0.916c0.821-4.835,0.655-10.418-6.8-15.168C57.098,22.92,54.602,22.398,52.083,22.398z"/><path fill="#a1887f" d="M39.641,61.959c-0.067,0-0.135-0.014-0.2-0.042c-0.253-0.11-0.368-0.405-0.257-0.658 c0.586-1.339,1.923-2.32,3.489-2.563c1.137-0.175,3.383-0.096,5.599,2.433c0.182,0.208,0.161,0.524-0.046,0.706 c-0.207,0.182-0.523,0.161-0.706-0.046c-1.41-1.607-3.079-2.361-4.694-2.104c-1.231,0.19-2.275,0.947-2.726,1.975 C40.017,61.848,39.833,61.959,39.641,61.959z"/><path fill="#472b29" d="M44.541,59.085c-0.013,0-0.026-0.002-0.039-0.006c-0.677-0.22-1.361-0.284-2.031-0.193 c-0.071,0.01-0.132-0.039-0.141-0.107s0.039-0.131,0.107-0.141c0.707-0.097,1.429-0.027,2.142,0.203 c0.065,0.021,0.102,0.092,0.081,0.157C44.643,59.052,44.594,59.085,44.541,59.085z"/><path fill="#472b29" d="M39.266,61.167c-0.017,0-0.034-0.003-0.05-0.011c-0.063-0.027-0.092-0.102-0.064-0.164 c0.326-0.744,0.928-1.392,1.696-1.823c0.058-0.032,0.135-0.014,0.17,0.048c0.034,0.061,0.013,0.137-0.048,0.171 c-0.721,0.404-1.285,1.01-1.59,1.704C39.36,61.139,39.314,61.167,39.266,61.167z"/><path fill="#8d6e63" d="M58.507,41.235c-0.256,0-0.512-0.098-0.707-0.293c-2.277-2.277-5.5-3.087-8.409-2.117 c-0.525,0.177-1.091-0.108-1.265-0.632c-0.175-0.524,0.108-1.09,0.632-1.265c3.634-1.217,7.641-0.216,10.456,2.6 c0.391,0.391,0.391,1.023,0,1.414C59.019,41.138,58.763,41.235,58.507,41.235z"/><path fill="#836f61" d="M62.655,43.281c-0.039,0-0.233-0.006-0.245-0.113c-0.384-3.496-1.068-4.996-1.619-6.202 c-0.65-1.424-1.042-2.283-0.415-6.049c0.418-2.506-1.751-4.869-4.04-5.506c-3.696-1.028-6.841-1.528-9.615-1.528 c-2.813,0-5.301,0.53-7.393,1.577c-3.075,2.044-4.361,6.03-5.333,10.563c-0.506-4.351,0.322-7.942,2.478-10.709 c2.791-3.582,7.838-5.637,13.848-5.637c2.752,0,5.451,0.438,7.802,1.267c11.168,3.936,10.725,13.094,9.291,18.563 c-1.909,0.036-3.113,1.452-4.328,3.564C63.002,43.217,62.809,43.281,62.655,43.281z"/><path fill="#472b29" d="M50.32,20.378c2.636,0,5.325,0.436,7.571,1.227c9.904,3.491,10.467,11.104,8.968,17.245 c-1.75,0.252-2.931,1.55-3.902,3.078c-0.414-2.81-1.05-4.203-1.529-5.253c-0.615-1.347-0.953-2.089-0.361-5.643 c0.495-2.97-1.973-5.58-4.543-6.295c-3.759-1.046-6.965-1.554-9.803-1.554c-2.923,0-5.515,0.555-7.706,1.651l-0.078,0.039 l-0.072,0.048c-1.829,1.219-3.048,3.073-3.943,5.302c0.391-1.686,1.093-3.181,2.103-4.478 C39.682,22.334,44.528,20.378,50.32,20.378 M50.32,18.978c-9.764,0-20.193,5.49-16.345,20.736 c1.135-5.91,2.129-11.269,5.666-13.627c2.143-1.072,4.549-1.503,7.08-1.503c3.04,0,6.261,0.622,9.428,1.503 c2.042,0.568,3.886,2.626,3.537,4.716c-1.179,7.075,1.179,4.717,2.028,12.442c0.054,0.491,0.483,0.737,0.941,0.737 c0.4,0,0.823-0.187,1.038-0.562c1.24-2.157,2.274-3.214,3.796-3.214c0.146,0,0.296,0.01,0.451,0.029 c2.358-8.254,0.582-16.367-9.584-19.95C55.986,19.449,53.181,18.978,50.32,18.978L50.32,18.978z"/><path fill="#8d6e63" d="M39.667,49.614c0.242-0.211,0.304-0.231,0.451-0.325c0.125-0.068,0.249-0.124,0.369-0.171 c0.242-0.096,0.479-0.161,0.712-0.211c0.468-0.09,0.917-0.097,1.35-0.079c0.869,0.035,1.673,0.243,2.433,0.504l0.487,0.166 c0.153,0.062,0.287,0.091,0.42,0.12c0.148,0.049,0.236,0.039,0.356,0.067c0.079-0.003,0.157,0,0.192,0.007 c0.177,0.163,0.408-0.613,0.337-1.257l-0.003-0.027c-0.026-0.235,0.144-0.446,0.378-0.472c0.173-0.019,0.333,0.068,0.415,0.209 c0.23,0.391,0.364,0.78,0.428,1.272c0.021,0.243-0.003,0.519-0.088,0.81c-0.105,0.294-0.302,0.6-0.577,0.807 c-0.572,0.426-1.16,0.439-1.62,0.433c-0.24-0.01-0.476-0.03-0.683-0.076l-0.6-0.116c-0.677-0.155-1.35-0.249-1.978-0.288 c-0.314-0.021-0.619-0.008-0.889,0.03c-0.136,0.013-0.265,0.035-0.375,0.064l-0.149,0.044c-0.017-0.006-0.122,0.061-0.024-0.029 c-0.409,0.371-1.041,0.341-1.413-0.069C39.227,50.618,39.258,49.985,39.667,49.614z"/><path fill="#8d6e63" d="M34.925,40.056c-0.267,0-0.534-0.106-0.73-0.317c-0.377-0.403-0.356-1.036,0.048-1.413 c0.119-0.111,2.963-2.71,6.895-1.396c0.524,0.174,0.807,0.74,0.632,1.265c-0.174,0.523-0.738,0.809-1.265,0.632 c-2.819-0.943-4.876,0.942-4.896,0.961C35.415,39.967,35.169,40.056,34.925,40.056z"/><path fill="#472b29" d="M49.071,39.003c-0.171,0-0.341-0.04-0.499-0.118c-0.27-0.135-0.47-0.366-0.565-0.652 c-0.196-0.588,0.123-1.226,0.711-1.422c0.339-0.114,0.693-0.212,1.05-0.29c0.07-0.011,0.135,0.027,0.149,0.096 c0.015,0.067-0.028,0.134-0.095,0.148c-0.349,0.076-0.693,0.171-1.025,0.282c-0.458,0.153-0.706,0.649-0.553,1.107 c0.074,0.222,0.23,0.402,0.44,0.507c0.208,0.104,0.445,0.12,0.667,0.046c0.067-0.021,0.137,0.015,0.159,0.078 c0.022,0.065-0.013,0.137-0.079,0.158C49.313,38.983,49.192,39.003,49.071,39.003z"/><path fill="#472b29" d="M55.486,39.401c-0.019,0-0.038-0.004-0.055-0.013c-1.31-0.647-2.751-0.931-4.172-0.816 c-0.068,0.013-0.129-0.046-0.134-0.115c-0.005-0.068,0.046-0.129,0.115-0.135c1.463-0.116,2.953,0.175,4.302,0.842 c0.062,0.031,0.087,0.105,0.057,0.168C55.577,39.376,55.532,39.401,55.486,39.401z"/><path fill="#472b29" d="M58.507,41.36c-0.3,0-0.583-0.117-0.795-0.329c-0.187-0.187-0.381-0.365-0.58-0.531 c-0.171-0.143-0.349-0.281-0.53-0.41c-0.056-0.04-0.069-0.118-0.029-0.174c0.04-0.058,0.119-0.07,0.174-0.029 c0.186,0.133,0.369,0.274,0.544,0.422c0.204,0.17,0.405,0.354,0.596,0.545c0.331,0.332,0.906,0.332,1.237,0 c0.049-0.049,0.128-0.049,0.177,0s0.049,0.129,0,0.178C59.09,41.243,58.807,41.36,58.507,41.36z"/><path fill="#472b29" d="M34.925,40.181c-0.311,0-0.61-0.13-0.822-0.357c-0.205-0.219-0.313-0.505-0.303-0.806 c0.01-0.3,0.137-0.578,0.356-0.784c0.051-0.047,0.13-0.044,0.177,0.007c0.047,0.05,0.044,0.129-0.006,0.177 c-0.171,0.159-0.27,0.376-0.277,0.609s0.076,0.456,0.235,0.627c0.319,0.341,0.896,0.359,1.236,0.042 c0.011-0.011,1.127-1.036,2.84-1.229c0.072-0.022,0.131,0.041,0.138,0.11c0.008,0.068-0.042,0.13-0.11,0.138 c-1.623,0.183-2.687,1.153-2.698,1.163C35.484,40.073,35.211,40.181,34.925,40.181z"/><path fill="#472b29" d="M40.824,39.003c-0.121,0-0.242-0.02-0.359-0.06c-0.388-0.13-0.785-0.211-1.182-0.242 c-0.069-0.006-0.12-0.066-0.115-0.135c0.005-0.068,0.059-0.113,0.134-0.115c0.417,0.033,0.834,0.119,1.241,0.256 c0.224,0.074,0.459,0.059,0.667-0.046c0.209-0.104,0.365-0.285,0.439-0.507c0.022-0.065,0.093-0.104,0.158-0.079 c0.065,0.021,0.101,0.092,0.079,0.157c-0.095,0.286-0.296,0.518-0.565,0.652C41.165,38.963,40.995,39.003,40.824,39.003z"/><path fill="#8d6e63" d="M65.339,49.248c-0.552,0-1-0.447-1-1c0-1.922,0.92-3.784,0.959-3.863 c0.246-0.492,0.846-0.694,1.339-0.447c0.494,0.246,0.695,0.846,0.451,1.34c-0.008,0.016-0.749,1.529-0.749,2.971 C66.339,48.801,65.892,49.248,65.339,49.248z"/><path fill="#a1887f" d="M52.021,60.19c-0.221,0-0.423-0.147-0.483-0.372c-0.071-0.267,0.088-0.541,0.355-0.611 c0.072-0.019,0.131-0.056,0.185-0.172c0.512-1.105-0.946-4.977-1.985-7.157c-0.119-0.249-0.013-0.548,0.236-0.666 c0.252-0.12,0.548-0.012,0.667,0.236c0.483,1.012,2.847,6.156,1.99,8.007c-0.171,0.371-0.461,0.619-0.836,0.719 C52.107,60.186,52.064,60.19,52.021,60.19z"/><path fill="#472b29" d="M51.48,59.815c-0.055,0-0.106-0.037-0.121-0.093c-0.018-0.067,0.022-0.136,0.088-0.153 c0.184-0.048,0.318-0.159,0.411-0.34c0.363-0.701,0.078-2.357-0.827-4.788c-0.024-0.065,0.009-0.137,0.074-0.161 c0.063-0.022,0.137,0.009,0.161,0.073c0.943,2.535,1.217,4.215,0.814,4.991c-0.126,0.243-0.317,0.399-0.569,0.467 C51.501,59.814,51.491,59.815,51.48,59.815z"/><path fill="#472b29" d="M50.702,53.382c-0.049,0-0.096-0.029-0.116-0.077c-0.38-0.924-0.693-1.581-0.696-1.588 c-0.03-0.063-0.003-0.137,0.059-0.167c0.062-0.025,0.138-0.002,0.167,0.06c0.003,0.007,0.318,0.67,0.702,1.6 c0.026,0.064-0.004,0.137-0.068,0.163C50.734,53.379,50.718,53.382,50.702,53.382z"/><path fill="#a1887f" d="M37.296,58.422c-0.174,0-0.343-0.091-0.436-0.253c-1.295-2.282,1.29-6.522,1.589-6.998 c0.147-0.233,0.457-0.304,0.689-0.158c0.234,0.147,0.305,0.456,0.158,0.689c-0.724,1.154-2.416,4.476-1.565,5.973 c0.136,0.24,0.052,0.546-0.188,0.682C37.465,58.401,37.38,58.422,37.296,58.422z"/><path fill="#fff" d="M49.074,41.964c0,0,2.717-3.891,7.075,0C54.677,43.286,52.074,45.268,49.074,41.964z"/><path fill="#fff" d="M36.104,41.964c0,0,2.264-3.891,5.896,0C40.773,43.286,38.604,45.268,36.104,41.964z"/><circle cx="39.052" cy="42.004" r="1.769" fill="#472b29"/><circle cx="52.022" cy="42.004" r="1.769" fill="#472b29"/><path fill="#472b29" d="M35.515,42.503c-0.128,0-0.257-0.049-0.354-0.147c-0.194-0.195-0.194-0.511,0-0.705 c0.105-0.104,2.62-2.561,6.407-1.301c0.262,0.088,0.403,0.371,0.316,0.633s-0.369,0.405-0.632,0.316 c-3.184-1.063-5.297,0.972-5.385,1.06C35.769,42.455,35.642,42.503,35.515,42.503z"/><path fill="#472b29" d="M56.148,42.337c-0.079,0-0.159-0.019-0.234-0.059c-3.81-2.021-6.009-1.014-6.031-1.005 c-0.246,0.118-0.546,0.017-0.667-0.23c-0.121-0.247-0.022-0.543,0.224-0.666c0.106-0.053,2.638-1.267,6.943,1.019 c0.244,0.129,0.337,0.432,0.207,0.676C56.5,42.24,56.328,42.337,56.148,42.337z"/><circle cx="37.873" cy="42.004" r=".59" fill="#fff"/><circle cx="50.843" cy="42.004" r=".59" fill="#fff"/><path fill="#8d6e63" d="M38.462,57.922c1.437-1.383,3.095-2.377,4.716-2.358c1.929,0.023,3.206,0.349,6.632,2.155 c-2.874-2.579-4.974-2.93-7.369-2.911C40.512,54.823,39.427,56.349,38.462,57.922z"/><path fill="#6d4c41" d="M38.462,57.922c0,0,0.884-4.716,4.422-4.716s5.896,2.358,7.075,4.716 c-3.537-2.358-4.127-2.948-6.485-2.948C39.936,54.974,38.462,57.922,38.462,57.922z"/><path fill="#472b29" d="M49.959,58.422c-0.184,0-0.36-0.102-0.448-0.276c-0.667-1.335-2.649-4.44-6.627-4.44 c-0.373,0-0.73,0.062-1.061,0.182c-0.26,0.092-0.547-0.039-0.641-0.299c-0.095-0.259,0.039-0.546,0.298-0.641 c0.441-0.161,0.913-0.242,1.403-0.242c3.146,0,5.958,1.866,7.522,4.993c0.124,0.247,0.023,0.547-0.224,0.671 C50.11,58.405,50.034,58.422,49.959,58.422z"/><path fill="#472b29" d="M38.462,58.422c-0.03,0-0.062-0.003-0.093-0.009c-0.271-0.051-0.45-0.312-0.399-0.583 c0.022-0.12,0.574-2.959,2.529-4.361c0.305-0.22,0.635-0.396,0.98-0.521c0.26-0.094,0.546,0.039,0.642,0.298 c0.095,0.26-0.039,0.547-0.298,0.642s-0.508,0.228-0.74,0.395c-1.634,1.171-2.125,3.707-2.13,3.732 C38.908,58.254,38.698,58.422,38.462,58.422z"/><g><path fill="#a1887f" d="M40.82,47.81c-0.104,0-0.209-0.032-0.299-0.1c-0.221-0.166-0.266-0.479-0.1-0.7 c3.341-4.456,2.295-7.763,2.284-7.796c-0.087-0.262,0.054-0.545,0.316-0.633c0.263-0.09,0.545,0.056,0.632,0.316 c0.052,0.154,1.22,3.842-2.433,8.712C41.122,47.74,40.972,47.81,40.82,47.81z"/></g><g><path fill="#a1887f" d="M53.202,62.549c-0.183,0-0.359-0.101-0.447-0.275c-0.124-0.246-0.025-0.547,0.221-0.671 c0.021-0.011,2.083-1.079,2.083-3.092c0-0.276,0.224-0.5,0.5-0.5s0.5,0.224,0.5,0.5c0,2.637-2.527,3.932-2.634,3.985 C53.353,62.532,53.277,62.549,53.202,62.549z"/></g><g><path fill="#472b29" d="M60.267,68.71c-0.075,0-0.149-0.033-0.198-0.098c-0.084-0.109-0.063-0.267,0.046-0.351l1.983-1.522 c0.109-0.085,0.266-0.065,0.351,0.046c0.084,0.109,0.063,0.267-0.046,0.351l-1.983,1.522C60.374,68.693,60.32,68.71,60.267,68.71z"/></g><g><path fill="#472b29" d="M53.375,74c-0.075,0-0.149-0.033-0.198-0.098c-0.084-0.109-0.063-0.267,0.046-0.351l5.227-4.012 c0.108-0.086,0.265-0.065,0.351,0.046c0.084,0.109,0.063,0.267-0.046,0.351l-5.227,4.012C53.482,73.983,53.428,74,53.375,74z"/></g><g><path fill="#472b29" d="M45.669,71.607c-0.088,0-0.173-0.047-0.219-0.129l-2.481-4.482c-0.067-0.121-0.023-0.272,0.098-0.34 c0.122-0.066,0.273-0.023,0.34,0.098l2.481,4.482c0.067,0.121,0.023,0.272-0.098,0.34C45.751,71.598,45.71,71.607,45.669,71.607z"/></g><g><path fill="#472b29" d="M64.334,48.875c-0.014,0-0.027-0.001-0.042-0.002c-0.275-0.022-0.48-0.264-0.458-0.539 c0.303-3.683,2.589-6.008,2.687-6.104c0.195-0.195,0.511-0.195,0.706,0c0.195,0.194,0.196,0.511,0.001,0.706 c-0.021,0.021-2.125,2.176-2.397,5.48C64.811,48.678,64.592,48.875,64.334,48.875z"/></g><g><path fill="#fdfcef" d="M80.178,69.287c1.883,0,3.517,0,3.54,0c2.11,0,3.821-1.674,3.821-3.739 c0-1.802-1.302-3.305-3.035-3.66c0.02-0.158,0.034-0.317,0.034-0.48c0-2.139-1.772-3.873-3.957-3.873 c-1.29,0-2.433,0.607-3.155,1.543c-0.185-2.381-2.358-4.218-4.9-3.913c-1.859,0.223-3.397,1.629-3.739,3.431 c-0.11,0.578-0.098,1.139,0.011,1.665c-0.498-0.525-1.208-0.856-1.998-0.856c-1.446,0-2.627,1.102-2.72,2.494 c-0.657-0.142-1.371-0.133-2.123,0.143c-1.438,0.528-2.462,1.853-2.522,3.356c-0.085,2.133,1.657,3.889,3.818,3.889 c0.164,0,0.741,0,0.874,0h7.934 M73.701,69.287h0.36"/><path fill="#472b29" d="M83.718,69.788h-3.54c-0.276,0-0.5-0.224-0.5-0.5s0.224-0.5,0.5-0.5h3.54 c1.831,0,3.321-1.453,3.321-3.239c0-1.524-1.108-2.858-2.636-3.17c-0.256-0.053-0.429-0.294-0.396-0.554 c0.018-0.137,0.03-0.275,0.03-0.417c0-1.86-1.551-3.373-3.457-3.373c-1.092,0-2.098,0.491-2.76,1.349 c-0.126,0.164-0.341,0.231-0.539,0.174c-0.198-0.06-0.339-0.234-0.355-0.44c-0.079-1.02-0.565-1.944-1.369-2.604 c-0.829-0.68-1.885-0.979-2.973-0.853c-1.646,0.197-3.006,1.442-3.307,3.027c-0.094,0.495-0.091,0.99,0.009,1.472 c0.045,0.219-0.06,0.441-0.258,0.545c-0.197,0.102-0.44,0.063-0.594-0.1c-0.428-0.451-1.009-0.7-1.635-0.7 c-1.169,0-2.145,0.891-2.221,2.027c-0.01,0.146-0.082,0.278-0.198,0.366c-0.116,0.087-0.264,0.12-0.406,0.089 c-0.639-0.138-1.243-0.098-1.846,0.125c-1.262,0.463-2.144,1.631-2.195,2.905c-0.035,0.876,0.283,1.709,0.895,2.346 c0.635,0.66,1.496,1.024,2.423,1.024h8.807c0.276,0,0.5,0.224,0.5,0.5s-0.224,0.5-0.5,0.5h-8.807 c-1.185,0-2.331-0.485-3.144-1.331c-0.803-0.836-1.219-1.929-1.173-3.078c0.067-1.675,1.212-3.204,2.849-3.806 c0.61-0.225,1.24-0.304,1.88-0.244c0.344-1.396,1.629-2.424,3.135-2.424c0.493,0,0.977,0.113,1.414,0.323 c0.009-0.242,0.037-0.484,0.083-0.727c0.381-2.009,2.096-3.585,4.17-3.833c1.365-0.167,2.685,0.218,3.726,1.071 c0.748,0.613,1.278,1.409,1.546,2.302c0.791-0.648,1.786-1.007,2.842-1.007c2.458,0,4.457,1.962,4.457,4.373 c0,0.034,0,0.068-0.001,0.103c1.764,0.555,3.003,2.188,3.003,4.038C88.039,67.886,86.101,69.788,83.718,69.788z M74.061,69.788 h-0.36c-0.276,0-0.5-0.224-0.5-0.5s0.224-0.5,0.5-0.5h0.36c0.276,0,0.5,0.224,0.5,0.5S74.337,69.788,74.061,69.788z"/><g><path fill="#472b29" d="M82.011,63.984c-0.018,0-0.036-0.002-0.055-0.006c-0.135-0.03-0.22-0.164-0.189-0.299 c0.037-0.164,0.094-0.325,0.17-0.479c0.604-1.224,2.272-1.677,3.722-1.007c0.125,0.058,0.18,0.206,0.122,0.331 c-0.058,0.126-0.207,0.179-0.332,0.122c-1.201-0.556-2.577-0.208-3.063,0.774c-0.058,0.118-0.102,0.242-0.13,0.367 C82.229,63.905,82.126,63.984,82.011,63.984z"/></g><g><path fill="#472b29" d="M76.852,69.788h-1.107c-0.276,0-0.5-0.224-0.5-0.5s0.224-0.5,0.5-0.5h1.107 c0.276,0,0.5,0.224,0.5,0.5S77.129,69.788,76.852,69.788z"/></g></g></svg>