<svg xmlns="http://www.w3.org/2000/svg"  viewBox="0 0 100 100" width="100px" height="100px"><path fill="#c7ede6" d="M88.597,56.546c0.3-0.616,0.566-1.264,0.796-1.943c2.633-7.77-1.349-17.078-9.733-19.325c-0.906-11.384-8.906-19.193-17.941-20.526c-10.341-1.525-19.814,5.044-22.966,15.485c-3.799-1.346-7.501-1.182-10.99,0.857c-1.583,0.732-3.031,1.812-4.33,3.233c-1.907,2.086-3.147,4.719-3.652,7.495c-0.748,0.118-1.483,0.236-2.176,0.484c-4.04,1.449-6.589,4.431-7.288,8.923c-0.435,2.797,0.443,5.587,0.933,6.714c1.935,4.455,6.422,6.98,10.981,6.312c0.227-0.033,0.557,0.069,0.752,0.233c0.241,7.12,3.698,13.417,8.884,17.014c8.321,5.772,19.027,3.994,25.781-3.921c2.894,2.96,6.338,4.398,10.384,3.876c4.023-0.519,7.147-2.739,9.426-6.349c1.053,0.283,2.051,0.691,3.083,0.804c4.042,0.442,7.324-1.165,9.732-4.8c0.922-1.391,1.793-3.194,1.793-6.354C92.067,61.503,90.773,58.536,88.597,56.546z"/><path fill="#fff" d="M74.287 26.261h-10.03c-.276 0-.5-.224-.5-.5s.224-.5.5-.5h10.03c.276 0 .5.224.5.5S74.564 26.261 74.287 26.261zM77.169 26.261h-1.446c-.276 0-.5-.224-.5-.5s.224-.5.5-.5h1.446c.276 0 .5.224.5.5S77.445 26.261 77.169 26.261zM81.223 26.261h-2.546c-.276 0-.5-.224-.5-.5s.224-.5.5-.5h2.546c.276 0 .5.224.5.5S81.499 26.261 81.223 26.261zM81.223 28.126h-9.616c-.276 0-.5-.224-.5-.5s.224-.5.5-.5h9.616c.276 0 .5.224.5.5S81.499 28.126 81.223 28.126zM69.875 28.126h-.58c-.276 0-.5-.224-.5-.5s.224-.5.5-.5h.58c.276 0 .5.224.5.5S70.152 28.126 69.875 28.126zM67.498 28.126h-1.456c-.276 0-.5-.224-.5-.5s.224-.5.5-.5h1.456c.276 0 .5.224.5.5S67.775 28.126 67.498 28.126zM76.634 24.397h-5.027c-.276 0-.5-.224-.5-.5s.224-.5.5-.5h5.027c.276 0 .5.224.5.5S76.91 24.397 76.634 24.397zM76.634 22.532h-1.257c-.276 0-.5-.224-.5-.5s.224-.5.5-.5h1.257c.276 0 .5.224.5.5S76.91 22.532 76.634 22.532zM73.365 29.991h-1.759c-.276 0-.5-.224-.5-.5s.224-.5.5-.5h1.759c.276 0 .5.224.5.5S73.642 29.991 73.365 29.991z"/><path fill="#fdfcef" d="M74.956,60.255c0,0,10.616,0,10.681,0c2.452,0,4.439-1.987,4.439-4.439c0-2.139-1.513-3.924-3.527-4.344c0.023-0.187,0.039-0.377,0.039-0.57c0-2.539-2.058-4.598-4.597-4.598c-1.499,0-2.827,0.721-3.666,1.831c-0.215-2.826-2.739-5.007-5.693-4.646c-2.16,0.264-3.947,1.934-4.344,4.073c-0.127,0.686-0.114,1.352,0.013,1.977c-0.579-0.624-1.403-1.016-2.322-1.016c-1.68,0-3.052,1.308-3.16,2.961c-0.763-0.169-1.593-0.158-2.467,0.17c-1.671,0.627-2.861,2.2-2.93,3.983c-0.099,2.533,1.925,4.617,4.435,4.617c0.191,0,0.861,0,1.015,0h9.218"/><path fill="#472b29" d="M85.637,60.755H74.956c-0.276,0-0.5-0.224-0.5-0.5s0.224-0.5,0.5-0.5h10.681c2.172,0,3.939-1.768,3.939-3.939c0-1.854-1.316-3.476-3.129-3.854c-0.254-0.053-0.426-0.293-0.394-0.552c0.021-0.167,0.035-0.336,0.035-0.508c0-2.26-1.838-4.098-4.098-4.098c-1.292,0-2.482,0.595-3.267,1.633c-0.125,0.166-0.337,0.238-0.54,0.178c-0.199-0.059-0.342-0.234-0.357-0.441c-0.094-1.238-0.701-2.401-1.664-3.19c-0.973-0.797-2.205-1.151-3.471-0.997c-1.947,0.238-3.556,1.746-3.913,3.669c-0.112,0.6-0.108,1.2,0.011,1.785c0.044,0.22-0.062,0.442-0.262,0.544c-0.2,0.104-0.442,0.06-0.595-0.104c-0.513-0.552-1.207-0.856-1.955-0.856c-1.401,0-2.569,1.096-2.661,2.494c-0.01,0.146-0.082,0.28-0.199,0.367c-0.117,0.089-0.267,0.119-0.408,0.089c-0.756-0.167-1.47-0.117-2.184,0.149c-1.498,0.562-2.545,1.983-2.606,3.535c-0.042,1.084,0.347,2.109,1.096,2.889c0.75,0.779,1.758,1.209,2.84,1.209H72.09c0.276,0,0.5,0.224,0.5,0.5s-0.224,0.5-0.5,0.5H61.857c-1.356,0-2.621-0.538-3.561-1.516c-0.939-0.978-1.428-2.264-1.375-3.621c0.076-1.949,1.384-3.73,3.254-4.432c0.72-0.271,1.466-0.362,2.221-0.279c0.362-1.655,1.842-2.885,3.582-2.885c0.604,0,1.194,0.151,1.72,0.432c0.004-0.327,0.036-0.655,0.097-0.983c0.436-2.347,2.399-4.188,4.775-4.478c1.538-0.191,3.039,0.243,4.226,1.216c0.899,0.737,1.543,1.742,1.847,2.851c0.919-0.808,2.095-1.256,3.347-1.256c2.811,0,5.098,2.287,5.098,5.098c0,0.064-0.001,0.128-0.004,0.192c2.048,0.628,3.492,2.547,3.492,4.722C90.576,58.539,88.36,60.755,85.637,60.755z"/><path fill="#fdfcef" d="M72.384,50.477c-1.642-0.108-3.055,1.026-3.157,2.533c-0.013,0.187-0.004,0.371,0.023,0.55c-0.317-0.358-0.786-0.6-1.324-0.636c-0.985-0.065-1.836,0.586-1.959,1.471c-0.179-0.049-0.366-0.082-0.56-0.095c-1.437-0.094-2.674,0.898-2.762,2.216"/><path fill="#472b29" d="M62.646,56.766c-0.006,0-0.012,0-0.017-0.001c-0.138-0.009-0.242-0.128-0.233-0.266c0.098-1.454,1.46-2.56,3.028-2.448c0.117,0.007,0.235,0.022,0.353,0.044c0.259-0.878,1.162-1.491,2.166-1.42c0.371,0.023,0.728,0.141,1.034,0.331c0-0.004,0-0.009,0.001-0.014c0.111-1.643,1.651-2.893,3.423-2.765c0.138,0.009,0.242,0.128,0.233,0.266c-0.009,0.137-0.125,0.257-0.266,0.232c-1.508-0.088-2.799,0.933-2.891,2.3c-0.011,0.166-0.004,0.333,0.021,0.496c0.017,0.11-0.041,0.218-0.141,0.265c-0.098,0.047-0.22,0.022-0.293-0.061c-0.285-0.322-0.706-0.523-1.153-0.553c-0.844-0.051-1.59,0.497-1.695,1.256c-0.01,0.071-0.05,0.135-0.11,0.175s-0.133,0.05-0.204,0.032c-0.17-0.046-0.342-0.075-0.51-0.087c-1.315-0.066-2.417,0.805-2.496,1.983C62.886,56.664,62.776,56.766,62.646,56.766z"/><path fill="#fdfcef" d="M87.434,51.992c-1.543-0.727-3.327-0.213-3.985,1.15c-0.082,0.169-0.142,0.344-0.182,0.521"/><path fill="#472b29" d="M83.266,53.912c-0.018,0-0.037-0.002-0.056-0.006c-0.135-0.031-0.219-0.165-0.188-0.3c0.045-0.198,0.113-0.391,0.201-0.573c0.717-1.484,2.654-2.05,4.317-1.269c0.125,0.06,0.179,0.208,0.12,0.333c-0.059,0.125-0.209,0.178-0.333,0.12c-1.418-0.671-3.056-0.205-3.654,1.032c-0.072,0.149-0.127,0.307-0.164,0.468C83.484,53.834,83.381,53.912,83.266,53.912z"/><path fill="#fdfcee" d="M52.44 28.01A20.62 20.62 0 1 0 52.44 69.25A20.62 20.62 0 1 0 52.44 28.01Z"/><path fill="#472b29" d="M52.44,69.95c-11.756,0-21.32-9.564-21.32-21.32S40.684,27.31,52.44,27.31s21.32,9.563,21.32,21.319S64.196,69.95,52.44,69.95z M52.44,28.71c-10.984,0-19.919,8.936-19.919,19.919c0,10.984,8.936,19.92,19.919,19.92s19.92-8.936,19.92-19.92C72.36,37.646,63.424,28.71,52.44,28.71z"/><path fill="#f1bc19" d="M52.44 31.578000000000003A17.052 17.052 0 1 0 52.44 65.682A17.052 17.052 0 1 0 52.44 31.578000000000003Z"/><path fill="#472b29" d="M52.44,66.082c-9.623,0-17.452-7.83-17.452-17.453s7.829-17.452,17.452-17.452s17.452,7.829,17.452,17.452S62.063,66.082,52.44,66.082z M52.44,31.978c-9.182,0-16.652,7.47-16.652,16.651c0,9.183,7.47,16.652,16.652,16.652s16.652-7.47,16.652-16.652C69.093,39.448,61.622,31.978,52.44,31.978z"/><path fill="#fbcd59" d="M52.462,34.214c7.612,0,14.076,4.964,16.521,11.897c-1.363-8.091-8.232-14.251-16.521-14.251s-15.158,6.16-16.521,14.251C38.386,39.179,44.85,34.214,52.462,34.214z" opacity=".79"/><path fill="#fdfcef" d="M39.785,70.356c1.71,0,3.194,0,3.215,0c1.916,0,3.469-1.52,3.469-3.396c0-1.636-1.182-3.001-2.756-3.323c0.018-0.143,0.031-0.288,0.031-0.436c0-1.942-1.609-3.517-3.593-3.517c-1.172,0-2.209,0.551-2.865,1.401c-0.168-2.162-2.141-3.83-4.45-3.554c-1.688,0.202-3.084,1.479-3.395,3.116c-0.1,0.525-0.089,1.034,0.01,1.512c-0.453-0.477-1.097-0.777-1.814-0.777c-1.313,0-2.385,1.001-2.47,2.265c-0.596-0.129-1.245-0.121-1.928,0.13c-1.306,0.48-2.236,1.683-2.29,3.047c-0.077,1.937,1.504,3.532,3.467,3.532c0.149,0,0.673,0,0.794,0h7.204 M33.903,70.356h0.327"/><path fill="#472b29" d="M43,70.856h-3.215c-0.276,0-0.5-0.224-0.5-0.5s0.224-0.5,0.5-0.5H43c1.637,0,2.969-1.299,2.969-2.896c0-1.362-0.991-2.554-2.356-2.833c-0.256-0.053-0.429-0.294-0.396-0.553c0.016-0.122,0.026-0.247,0.026-0.373c0-1.664-1.388-3.018-3.093-3.018c-0.977,0-1.877,0.439-2.469,1.207c-0.127,0.164-0.34,0.231-0.539,0.174c-0.198-0.06-0.339-0.234-0.355-0.44c-0.071-0.913-0.507-1.741-1.227-2.333c-0.743-0.609-1.685-0.878-2.665-0.764c-1.475,0.177-2.694,1.292-2.963,2.712c-0.084,0.444-0.082,0.888,0.008,1.318c0.045,0.219-0.06,0.441-0.258,0.545c-0.197,0.103-0.44,0.063-0.594-0.1c-0.38-0.4-0.896-0.621-1.452-0.621c-1.038,0-1.903,0.79-1.971,1.798c-0.01,0.146-0.082,0.278-0.198,0.366c-0.116,0.087-0.265,0.12-0.406,0.089c-0.572-0.122-1.111-0.086-1.65,0.112c-1.128,0.414-1.917,1.458-1.963,2.598c-0.031,0.781,0.253,1.525,0.8,2.095c0.568,0.591,1.337,0.916,2.167,0.916h7.998c0.276,0,0.5,0.224,0.5,0.5s-0.224,0.5-0.5,0.5h-7.998c-1.089,0-2.142-0.446-2.889-1.224c-0.737-0.767-1.12-1.771-1.078-2.827c0.062-1.539,1.113-2.944,2.617-3.497c0.549-0.201,1.115-0.279,1.688-0.229c0.331-1.268,1.506-2.197,2.882-2.197c0.431,0,0.854,0.094,1.241,0.269c0.011-0.199,0.035-0.398,0.073-0.597c0.35-1.844,1.924-3.291,3.827-3.519c1.25-0.155,2.463,0.199,3.418,0.983c0.668,0.548,1.147,1.255,1.399,2.047c0.718-0.568,1.61-0.882,2.557-0.882c2.257,0,4.093,1.803,4.093,4.018c0,0.02,0,0.039,0,0.059c1.604,0.521,2.727,2.013,2.727,3.7C46.969,69.109,45.188,70.856,43,70.856z M34.229,70.856h-0.326c-0.276,0-0.5-0.224-0.5-0.5s0.224-0.5,0.5-0.5h0.326c0.276,0,0.5,0.224,0.5,0.5S34.506,70.856,34.229,70.856z"/><path fill="#472b29" d="M41.449 65.564c-.018 0-.036-.002-.055-.006-.135-.03-.219-.164-.189-.299.034-.152.086-.3.156-.44.554-1.122 2.083-1.54 3.41-.925.125.058.18.206.122.331-.059.126-.206.18-.332.122-1.081-.498-2.315-.189-2.751.693-.051.104-.09.215-.116.328C41.667 65.485 41.564 65.564 41.449 65.564zM36.764 70.856h-1.005c-.276 0-.5-.224-.5-.5s.224-.5.5-.5h1.005c.276 0 .5.224.5.5S37.041 70.856 36.764 70.856z"/><path fill="#fff" d="M17.259 50.582H7.229c-.276 0-.5-.224-.5-.5s.224-.5.5-.5h10.031c.276 0 .5.224.5.5S17.536 50.582 17.259 50.582zM20.14 50.582h-1.446c-.276 0-.5-.224-.5-.5s.224-.5.5-.5h1.446c.276 0 .5.224.5.5S20.417 50.582 20.14 50.582zM24.195 50.582h-2.546c-.276 0-.5-.224-.5-.5s.224-.5.5-.5h2.546c.276 0 .5.224.5.5S24.471 50.582 24.195 50.582zM24.195 52.447h-9.616c-.276 0-.5-.224-.5-.5s.224-.5.5-.5h9.616c.276 0 .5.224.5.5S24.471 52.447 24.195 52.447zM12.847 52.447h-.58c-.276 0-.5-.224-.5-.5s.224-.5.5-.5h.58c.276 0 .5.224.5.5S13.124 52.447 12.847 52.447zM10.47 52.447H9.014c-.276 0-.5-.224-.5-.5s.224-.5.5-.5h1.457c.276 0 .5.224.5.5S10.747 52.447 10.47 52.447zM19.606 48.717h-5.027c-.276 0-.5-.224-.5-.5s.224-.5.5-.5h5.027c.276 0 .5.224.5.5S19.883 48.717 19.606 48.717zM19.606 46.852h-1.257c-.276 0-.5-.224-.5-.5s.224-.5.5-.5h1.257c.276 0 .5.224.5.5S19.883 46.852 19.606 46.852zM16.338 54.312h-1.759c-.276 0-.5-.224-.5-.5s.224-.5.5-.5h1.759c.276 0 .5.224.5.5S16.614 54.312 16.338 54.312z"/><path fill="#961b30" d="M52.462,60.029c6.075,0,11-4.925,11-11h-22C41.462,55.104,46.387,60.029,52.462,60.029z"/><path fill="#472b29" d="M52.462,60.429c-6.286,0-11.4-5.114-11.4-11.4v-0.4h22.8v0.4C63.862,55.315,58.748,60.429,52.462,60.429z M41.869,49.429c0.211,5.66,4.882,10.199,10.593,10.199s10.382-4.539,10.593-10.199H41.869z"/><path fill="#ee3e54" d="M46.591,55.004c-0.084,0.492-0.129,1.002-0.129,1.525c0,4.142,2.686,7.5,6,7.5s6-3.358,6-7.5c0-0.523-0.045-1.033-0.129-1.525c-0.092-0.544-0.668-0.975-1.22-0.975H47.81C47.259,54.029,46.683,54.46,46.591,55.004z"/><path fill="#472b29" d="M52.462,64.429c-3.529,0-6.4-3.544-6.4-7.9c0-0.531,0.045-1.067,0.135-1.593c0.122-0.721,0.846-1.308,1.613-1.308h9.303c0.769,0,1.493,0.587,1.614,1.309c0.089,0.522,0.134,1.059,0.134,1.592C58.862,60.885,55.99,64.429,52.462,64.429z M47.81,54.429c-0.375,0-0.768,0.306-0.824,0.641v0.001c-0.083,0.48-0.124,0.972-0.124,1.458c0,3.915,2.512,7.1,5.6,7.1s5.6-3.185,5.6-7.1c0-0.488-0.042-0.979-0.124-1.458c-0.057-0.336-0.45-0.642-0.825-0.642H47.81z"/><path fill="#684933" d="M42.504,41.649c0.08-0.271,0.38-0.41,0.64-0.33l4.864,1.47c0.27,0.08,0.454,0.36,0.454,0.62v0.24c0,0.26-0.184,0.54-0.454,0.62l-4.867,1.47c-0.27,0.08-0.563-0.06-0.644-0.33c-0.08-0.26,0.063-0.54,0.333-0.62l4.076-1.26l-4.081-1.26C42.565,42.189,42.423,41.909,42.504,41.649z"/><path fill="#472b29" d="M42.987,46.011c-0.331,0-0.633-0.208-0.729-0.531c-0.059-0.189-0.039-0.393,0.055-0.569c0.095-0.176,0.253-0.305,0.446-0.361l3.3-1.021l-3.308-1.021c-0.188-0.058-0.341-0.187-0.434-0.36c-0.093-0.178-0.112-0.38-0.053-0.571c0.056-0.188,0.183-0.343,0.359-0.438c0.182-0.098,0.399-0.119,0.594-0.06l4.863,1.47c0.359,0.106,0.631,0.477,0.631,0.859v0.24c0,0.383-0.272,0.753-0.632,0.859l-4.866,1.47C43.137,46,43.062,46.011,42.987,46.011z M42.992,41.546c-0.045,0-0.091,0.012-0.132,0.033c-0.041,0.022-0.094,0.064-0.117,0.14l-0.001,0.004c-0.02,0.064-0.014,0.132,0.017,0.191c0.03,0.056,0.079,0.098,0.139,0.115l4.854,1.499l-4.85,1.499c-0.067,0.02-0.119,0.062-0.15,0.119c-0.031,0.058-0.038,0.125-0.018,0.188c0.041,0.133,0.188,0.204,0.334,0.164l4.866-1.47c0.171-0.051,0.276-0.237,0.276-0.381v-0.24c0-0.144-0.105-0.33-0.275-0.381l-4.865-1.47C43.046,41.55,43.019,41.546,42.992,41.546z"/><path fill="#684933" d="M60.462 42.029A2 2 0 1 0 60.462 46.029A2 2 0 1 0 60.462 42.029Z"/><path fill="#472b29" d="M60.462,46.279c-1.241,0-2.25-1.01-2.25-2.25s1.009-2.25,2.25-2.25s2.25,1.01,2.25,2.25S61.702,46.279,60.462,46.279z M60.462,42.279c-0.965,0-1.75,0.785-1.75,1.75s0.785,1.75,1.75,1.75s1.75-0.785,1.75-1.75S61.426,42.279,60.462,42.279z"/></svg>