<svg xmlns="http://www.w3.org/2000/svg" xmlns:xlink="http://www.w3.org/1999/xlink" viewBox="0,0,256,256" width="100px" height="100px"><g fill="#ffffff" fill-rule="nonzero" stroke="none" stroke-width="1" stroke-linecap="butt" stroke-linejoin="miter" stroke-miterlimit="10" stroke-dasharray="" stroke-dashoffset="0" font-family="none" font-weight="none" font-size="none" text-anchor="none" style="mix-blend-mode: normal"><g transform="scale(5.12,5.12)"><path d="M15,7c-7.14545,0 -13,5.85455 -13,13c0,14.7619 16.67842,22.03345 22.35938,26.76758l0.64063,0.5332l0.64063,-0.5332c5.68096,-4.73413 22.35938,-12.00567 22.35938,-26.76758c0,-7.14545 -5.85455,-13 -13,-13c-4.05969,0 -7.64151,1.89031 -10,4.84766c-2.35849,-2.95735 -5.94031,-4.84766 -10,-4.84766zM15,9c3.86667,0 7.23872,1.92423 9.15625,4.9375l0.84375,1.32422l0.84375,-1.32422c1.91753,-3.01327 5.28958,-4.9375 9.15625,-4.9375c6.05454,0 11,4.94546 11,11c0,12.88767 -14.40085,19.57207 -21,24.77734c-6.59915,-5.20527 -21,-11.88967 -21,-24.77734c0,-6.05454 4.94545,-11 11,-11z"></path></g></g></svg>