<svg xmlns="http://www.w3.org/2000/svg"  viewBox="0 0 100 100" width="100px" height="100px"><path fill="#c7ede6" d="M87.215,56.71C88.35,54.555,89,52.105,89,49.5c0-6.621-4.159-12.257-10.001-14.478 C78.999,35.015,79,35.008,79,35c0-11.598-9.402-21-21-21c-9.784,0-17.981,6.701-20.313,15.757C36.211,29.272,34.638,29,33,29 c-7.692,0-14.023,5.793-14.89,13.252C12.906,43.353,9,47.969,9,53.5C9,59.851,14.149,65,20.5,65c0.177,0,0.352-0.012,0.526-0.022 C21.022,65.153,21,65.324,21,65.5C21,76.822,30.178,86,41.5,86c6.437,0,12.175-2.972,15.934-7.614C59.612,80.611,62.64,82,66,82 c4.65,0,8.674-2.65,10.666-6.518C77.718,75.817,78.837,76,80,76c6.075,0,11-4.925,11-11C91,61.689,89.53,58.727,87.215,56.71z"/><path fill="#fdfcef" d="M38.875,34.5c0,0,3.64,0,6.125,0s4.5-2.015,4.5-4.5c0-2.333-1.782-4.229-4.055-4.455 C45.467,25.364,45.5,25.187,45.5,25c0-2.485-2.015-4.5-4.5-4.5c-1.438,0-2.703,0.686-3.527,1.736 C37.333,19.6,35.171,17.5,32.5,17.5c-2.761,0-5,2.239-5,5c0,0.446,0.077,0.87,0.187,1.282C27.045,23.005,26.086,22.5,25,22.5 c-1.781,0-3.234,1.335-3.455,3.055C21.364,25.533,21.187,25.5,21,25.5c-2.485,0-4.5,2.015-4.5,4.5s2.015,4.5,4.5,4.5s9.5,0,9.5,0 h5.375V35h3V34.5z"/><path fill="#472b29" d="M32.5,17c-3.033,0-5.5,2.467-5.5,5.5c0,0.016,0,0.031,0,0.047C26.398,22.192,25.71,22,25,22 c-1.831,0-3.411,1.261-3.858,3.005C21.095,25.002,21.048,25,21,25c-2.757,0-5,2.243-5,5s2.243,5,5,5h14.875 c0.276,0,0.5-0.224,0.5-0.5s-0.224-0.5-0.5-0.5H21c-2.206,0-4-1.794-4-4s1.794-4,4-4c0.117,0,0.23,0.017,0.343,0.032l0.141,0.019 c0.021,0.003,0.041,0.004,0.062,0.004c0.246,0,0.462-0.185,0.495-0.437C22.232,24.125,23.504,23,25,23 c0.885,0,1.723,0.401,2.301,1.1c0.098,0.118,0.241,0.182,0.386,0.182c0.078,0,0.156-0.018,0.228-0.056 c0.209-0.107,0.314-0.346,0.254-0.573C28.054,23.218,28,22.852,28,22.5c0-2.481,2.019-4.5,4.5-4.5 c2.381,0,4.347,1.872,4.474,4.263c0.011,0.208,0.15,0.387,0.349,0.45c0.05,0.016,0.101,0.024,0.152,0.024 c0.15,0,0.296-0.069,0.392-0.192C38.638,21.563,39.779,21,41,21c2.206,0,4,1.794,4,4c0,0.117-0.017,0.23-0.032,0.343l-0.019,0.141 c-0.016,0.134,0.022,0.268,0.106,0.373c0.084,0.105,0.207,0.172,0.34,0.185C47.451,26.247,49,27.949,49,30c0,2.206-1.794,4-4,4 h-6.125c-0.276,0-0.5,0.224-0.5,0.5s0.224,0.5,0.5,0.5H45c2.757,0,5-2.243,5-5c0-2.397-1.689-4.413-4.003-4.877 C45.999,25.082,46,25.041,46,25c0-2.757-2.243-5-5-5c-1.176,0-2.293,0.416-3.183,1.164C37.219,18.76,35.055,17,32.5,17L32.5,17z"/><path fill="#472b29" d="M31,24c-1.403,0-2.609,0.999-2.913,2.341C27.72,26.119,27.301,26,26.875,26 c-1.202,0-2.198,0.897-2.353,2.068C24.319,28.022,24.126,28,23.937,28c-1.529,0-2.811,1.2-2.918,2.732 C21.01,30.87,21.114,30.99,21.251,31c0.006,0,0.012,0,0.018,0c0.13,0,0.24-0.101,0.249-0.232c0.089-1.271,1.151-2.268,2.419-2.268 c0.229,0,0.47,0.042,0.738,0.127c0.022,0.007,0.045,0.01,0.067,0.01c0.055,0,0.11-0.02,0.156-0.054 C24.962,28.537,25,28.455,25,28.375c0-1.034,0.841-1.875,1.875-1.875c0.447,0,0.885,0.168,1.231,0.473 c0.047,0.041,0.106,0.063,0.165,0.063c0.032,0,0.063-0.006,0.093-0.019c0.088-0.035,0.148-0.117,0.155-0.212 C28.623,25.512,29.712,24.5,31,24.5c0.208,0,0.425,0.034,0.682,0.107c0.023,0.007,0.047,0.01,0.07,0.01 c0.109,0,0.207-0.073,0.239-0.182c0.038-0.133-0.039-0.271-0.172-0.309C31.517,24.04,31.256,24,31,24L31,24z"/><path fill="#472b29" d="M44.883,25.5c-1.326,0-2.508,0.897-2.874,2.182c-0.038,0.133,0.039,0.271,0.172,0.309 C42.205,27.997,42.228,28,42.25,28c0.109,0,0.209-0.072,0.24-0.182C42.795,26.748,43.779,26,44.883,26 c0.117,0,0.23,0.014,0.342,0.029c0.012,0.002,0.023,0.003,0.035,0.003c0.121,0,0.229-0.092,0.246-0.217 c0.019-0.137-0.077-0.263-0.214-0.281C45.158,25.516,45.022,25.5,44.883,25.5L44.883,25.5z"/><path fill="#fff" d="M17.405,59H7.5C7.224,59,7,58.776,7,58.5S7.224,58,7.5,58h9.905c0.276,0,0.5,0.224,0.5,0.5 S17.682,59,17.405,59z"/><path fill="#fff" d="M20.5,59h-1c-0.276,0-0.5-0.224-0.5-0.5s0.224-0.5,0.5-0.5h1c0.276,0,0.5,0.224,0.5,0.5 S20.777,59,20.5,59z"/><path fill="#fff" d="M25.491,61H16.5c-0.276,0-0.5-0.224-0.5-0.5s0.224-0.5,0.5-0.5h8.991c0.276,0,0.5,0.224,0.5,0.5 S25.767,61,25.491,61z"/><path fill="#fff" d="M14.5,61h-1c-0.276,0-0.5-0.224-0.5-0.5s0.224-0.5,0.5-0.5h1c0.276,0,0.5,0.224,0.5,0.5 S14.777,61,14.5,61z"/><path fill="#fff" d="M11.5,61h-2C9.224,61,9,60.776,9,60.5S9.224,60,9.5,60h2c0.276,0,0.5,0.224,0.5,0.5 S11.777,61,11.5,61z"/><path fill="#fff" d="M17.5,63h-2c-0.276,0-0.5-0.224-0.5-0.5s0.224-0.5,0.5-0.5h2c0.276,0,0.5,0.224,0.5,0.5 S17.776,63,17.5,63z"/><path fill="#fff" d="M20.5,54c-0.177,0-0.823,0-1,0c-0.276,0-0.5,0.224-0.5,0.5c0,0.276,0.224,0.5,0.5,0.5 c0.177,0,0.823,0,1,0c0.276,0,0.5-0.224,0.5-0.5C21,54.224,20.776,54,20.5,54z"/><path fill="#fff" d="M20.5,56c-0.177,0-4.823,0-5,0c-0.276,0-0.5,0.224-0.5,0.5c0,0.276,0.224,0.5,0.5,0.5 c0.177,0,4.823,0,5,0c0.276,0,0.5-0.224,0.5-0.5C21,56.224,20.776,56,20.5,56z"/><path fill="#fff" d="M25.5,58c-0.177,0-2.823,0-3,0c-0.276,0-0.5,0.224-0.5,0.5c0,0.276,0.224,0.5,0.5,0.5 c0.177,0,2.823,0,3,0c0.276,0,0.5-0.224,0.5-0.5C26,58.224,25.776,58,25.5,58z"/><path fill="#fff" d="M78.5,34h-10c-0.276,0-0.5-0.224-0.5-0.5s0.224-0.5,0.5-0.5h10c0.276,0,0.5,0.224,0.5,0.5 S78.776,34,78.5,34z"/><path fill="#fff" d="M82.5,34h-2c-0.276,0-0.5-0.224-0.5-0.5s0.224-0.5,0.5-0.5h2c0.276,0,0.5,0.224,0.5,0.5 S82.776,34,82.5,34z"/><path fill="#fff" d="M87.5,36h-10c-0.276,0-0.5-0.224-0.5-0.5s0.224-0.5,0.5-0.5h10c0.276,0,0.5,0.224,0.5,0.5 S87.777,36,87.5,36z"/><path fill="#fff" d="M75.5,36h-1c-0.276,0-0.5-0.224-0.5-0.5s0.224-0.5,0.5-0.5h1c0.276,0,0.5,0.224,0.5,0.5 S75.776,36,75.5,36z"/><path fill="#fff" d="M72.375,36H70.5c-0.276,0-0.5-0.224-0.5-0.5s0.224-0.5,0.5-0.5h1.875c0.276,0,0.5,0.224,0.5,0.5 S72.651,36,72.375,36z"/><path fill="#fff" d="M81.5,32h-5c-0.276,0-0.5-0.224-0.5-0.5s0.224-0.5,0.5-0.5h5c0.276,0,0.5,0.224,0.5,0.5 S81.777,32,81.5,32z"/><path fill="#fff" d="M78.5,38h-2c-0.276,0-0.5-0.224-0.5-0.5s0.224-0.5,0.5-0.5h2c0.276,0,0.5,0.224,0.5,0.5 S78.776,38,78.5,38z"/><path fill="#f6cca4" d="M45.667,74.717c-2.534,0-5.092-1.13-5.092-3.654c0-2.667-1.471-4.165-3.027-5.75 c-1.019-1.038-2.072-2.11-2.879-3.64c-1.875-3.553-1.059-5.34-1.05-5.357c0.445-0.843,0.775-2.953-1.199-4.823 c-0.968-0.917-0.813-1.736-0.373-3.503c0.264-1.059,0.592-2.376,0.592-3.989c0-3.468,2.594-7.864,3.004-8.538 c3.045-2.561,6.923-3.913,11.221-3.913c8.613,0,16.447,5.277,17.106,11.524c0.028,0.265,0.204,0.491,0.454,0.583 c0.079,0.029,0.161,0.044,0.242,0.044c0.176,0,0.349-0.066,0.481-0.192c0.439-0.416,1.72-1.193,2.828-1.193 c1.542,0,2.324,1.576,2.324,4.686c0,7.335-4.661,8.304-4.708,8.313c-0.331,0.063-0.57,0.352-0.57,0.688v6 c0,4.021-10.984,10.04-16.588,12.223C47.604,74.546,46.646,74.717,45.667,74.717z"/><path fill="#472b29" d="M46.863,32.249c8.129,0,15.797,5.093,16.41,10.898c0.056,0.53,0.408,0.982,0.907,1.167 c0.158,0.058,0.322,0.087,0.485,0.087c0.352,0,0.698-0.133,0.963-0.384c0.311-0.295,1.429-1.002,2.347-1.002 c1.343,0,1.625,2.167,1.625,3.986c0,6.651-3.987,7.591-4.139,7.625C64.8,54.75,64.321,55.327,64.321,56v6 c0,3.468-10.509,9.376-16.142,11.571c-0.75,0.292-1.619,0.447-2.513,0.447c-1.631,0-4.392-0.622-4.392-2.955 c0-2.953-1.641-4.625-3.227-6.24c-0.984-1.002-2.001-2.038-2.76-3.476c-1.604-3.039-1.084-4.601-1.035-4.733 c0.564-1.11,0.896-3.5-1.352-5.63c-0.655-0.62-0.624-1.027-0.175-2.825c0.273-1.095,0.613-2.458,0.613-4.158 c0-3.149,2.312-7.19,2.843-8.075C39.842,32.891,44,32.249,46.863,32.249 M34.256,56.604h0.005H34.256 M46.863,30.849 c-4.145,0-8.338,1.236-11.758,4.151c0,0-3.167,5-3.167,9s-2.111,6,0,8s1.056,4,1.056,4s-1.056,2,1.056,6s5.825,5.063,5.825,9.063 c0,2.942,2.88,4.354,5.792,4.354c1.047,0,2.098-0.182,3.021-0.542C52.538,73.375,65.721,67,65.721,62s0-6,0-6S71,55,71,47 c0-4.232-1.477-5.386-3.025-5.386c-1.378,0-2.812,0.915-3.309,1.386C63.952,36.239,55.515,30.849,46.863,30.849L46.863,30.849z"/><path fill="#9f8066" d="M62.5,48.375c1-4,4-7.438,7-5.438c-1-14-10-16.438-18-17.438s-15,2-19,7s0,11,0,11s0-1,2-5 s15-5,18-4s2,5,2,5c3,1,4.625,9,4.625,9L62.5,48.375z"/><path fill="#472b29" d="M59.125,49.2c-0.332,0-0.619-0.233-0.686-0.561c-0.599-2.94-2.258-7.841-4.161-8.476 c-0.346-0.115-0.545-0.479-0.458-0.832c0.034-0.139,0.802-3.387-1.542-4.168c-2.955-0.984-15.417,0.178-17.152,3.649 c-1.821,3.642-1.924,4.676-1.927,4.719c-0.024,0.297-0.234,0.559-0.523,0.633c-0.289,0.073-0.593-0.03-0.758-0.276 c-0.043-0.064-4.235-6.488,0.035-11.826c4.423-5.527,11.771-8.243,19.634-7.257c9.076,1.135,17.613,4.11,18.611,18.082 c0.019,0.267-0.115,0.521-0.346,0.655c-0.232,0.135-0.519,0.123-0.741-0.023c-0.754-0.502-1.497-0.603-2.275-0.301 c-1.54,0.595-3.009,2.735-3.657,5.326c-0.075,0.302-0.342,0.519-0.652,0.529l-3.375,0.125C59.143,49.2,59.134,49.2,59.125,49.2z M62.5,48.375h0.01H62.5z M55.292,39.098c2.534,1.493,3.959,6.806,4.392,8.682l2.275-0.085c0.826-2.82,2.508-5.061,4.372-5.781 c0.787-0.307,1.586-0.343,2.362-0.121c-1.32-11.941-9.063-14.57-17.28-15.598c-7.387-0.917-14.25,1.599-18.366,6.743 c-2.496,3.12-1.568,6.722-0.728,8.693c0.306-0.801,0.789-1.913,1.555-3.444c2.241-4.48,15.827-5.355,18.848-4.351 C55.272,34.687,55.547,37.389,55.292,39.098z"/><path fill="#472b29" d="M65.499,52c-0.233,0-0.441-0.164-0.489-0.402c-0.418-2.09-0.224-3.646,0.579-4.625 C66.378,46.011,67.454,46,67.5,46c0.276,0,0.5,0.224,0.5,0.5c0,0.274-0.222,0.498-0.496,0.5c-0.037,0.001-0.677,0.026-1.154,0.622 c-0.584,0.729-0.708,2.036-0.359,3.78c0.055,0.271-0.121,0.534-0.393,0.588C65.565,51.997,65.532,52,65.499,52z"/><path fill="#472b29" d="M42.5,43.5c0,0,0,1,2,1s6,0,6,0c1.083,0,2.255,1.937,0,2c-1.999,0.056-7,0-7,0 C42.75,46.417,41.162,45.646,42.5,43.5z"/><path fill="#472b29" d="M47.802,46.775c-2.061,0-4.271-0.025-4.305-0.025c-0.447-0.048-1.256-0.319-1.604-1.039 c-0.31-0.638-0.177-1.426,0.396-2.343c0.058-0.096,0.174-0.142,0.28-0.108c0.106,0.03,0.18,0.126,0.182,0.235 c0.003,0.042,0.071,0.755,1.75,0.755h6c0.752,0,1.528,0.731,1.538,1.45c0.004,0.303-0.137,1.011-1.531,1.05 C49.843,46.769,48.841,46.775,47.802,46.775z M43.529,46.252c0.106,0,5.008,0.054,6.964-0.002c0.316-0.009,1.052-0.079,1.045-0.543 c-0.006-0.4-0.529-0.957-1.038-0.957h-6c-1.208,0-1.768-0.354-2.027-0.686c-0.271,0.569-0.314,1.048-0.131,1.428 c0.255,0.525,0.887,0.727,1.186,0.76C43.527,46.252,43.528,46.252,43.529,46.252z M42.75,43.5h0.006H42.75z"/><path fill="#472b29" d="M37.5,46.5c0,0-3.625,1.469-5,5c-1-1-1-3-1-3S34.5,44.5,37.5,46.5z"/><path fill="#472b29" d="M32.5,51.75c-0.065,0-0.13-0.025-0.177-0.073c-1.062-1.061-1.073-3.091-1.073-3.177 c0-0.054,0.018-0.106,0.05-0.15c0.031-0.042,3.178-4.166,6.339-2.058c0.077,0.052,0.119,0.141,0.11,0.233 c-0.01,0.092-0.069,0.171-0.155,0.206c-0.035,0.015-3.543,1.475-4.86,4.859c-0.031,0.078-0.1,0.137-0.182,0.154 C32.534,51.748,32.517,51.75,32.5,51.75z M31.752,48.584c0.013,0.335,0.099,1.598,0.677,2.439c1.188-2.633,3.54-4.047,4.528-4.546 C34.521,45.314,32.133,48.11,31.752,48.584z"/><path fill="#472b29" d="M39.59,58.781c-0.28,0-0.588-0.192-0.807-0.507c-0.395-0.567-0.671-1.716,0.255-3.965 c0.467-1.135,0.287-2.468-0.492-3.657c-0.851-1.3-2.214-2.124-3.557-2.152c-0.275-0.006-0.495-0.234-0.489-0.511 c0.006-0.272,0.229-0.489,0.5-0.489c0.003,0,0.007,0,0.011,0c1.667,0.035,3.343,1.033,4.372,2.604 c0.963,1.47,1.174,3.142,0.579,4.586c-0.878,2.135-0.472,2.959-0.284,3.098c0.229,0.039,0.407,0.234,0.416,0.476 c0.01,0.276-0.206,0.508-0.482,0.518C39.604,58.781,39.597,58.781,39.59,58.781z M39.578,57.781c-0.001,0-0.001,0-0.002,0 C39.577,57.781,39.577,57.781,39.578,57.781z"/><path fill="#472b29" d="M42.039,58.495c-0.177,0-0.349-0.092-0.439-0.255c-0.132-0.237-0.056-0.533,0.178-0.671 c0.126-0.074,0.856-0.444,2.89-0.444c0.723,0,0.979-0.46,0.979-0.854c0-0.446-0.316-0.896-1.021-0.896c-0.276,0-0.5-0.224-0.5-0.5 s0.224-0.5,0.5-0.5c1.327,0,2.021,0.954,2.021,1.896c0,0.487-0.182,0.941-0.51,1.28c-0.255,0.262-0.716,0.573-1.47,0.573 c-1.776,0-2.387,0.309-2.393,0.313C42.199,58.477,42.118,58.495,42.039,58.495z"/><path fill="#472b29" d="M52.5,60.75c-0.112,0-0.214-0.076-0.242-0.189c-0.356-1.421-1.139-2.743-2.327-3.929 c-0.098-0.098-0.098-0.256,0-0.354c0.098-0.097,0.256-0.099,0.354,0c1.253,1.251,2.08,2.65,2.458,4.161 c0.034,0.134-0.048,0.27-0.182,0.303C52.54,60.748,52.52,60.75,52.5,60.75z"/><path fill="#472b29" d="M48.818,55.594c-0.052,0-0.104-0.016-0.149-0.05c-0.727-0.54-1.275-0.817-1.281-0.82 c-0.123-0.062-0.173-0.212-0.111-0.336c0.063-0.123,0.215-0.171,0.335-0.111c0.024,0.012,0.592,0.298,1.356,0.867 c0.11,0.082,0.134,0.238,0.051,0.35C48.97,55.559,48.895,55.594,48.818,55.594z"/><path fill="#472b29" d="M38.5,63.75c-0.038,0-0.076-0.009-0.111-0.026c-2.114-1.057-2.139-3.136-2.139-3.224 c0-0.138,0.111-0.249,0.249-0.25c0.001,0,0.001,0,0.001,0c0.138,0,0.249,0.111,0.25,0.249c0,0.076,0.031,1.862,1.861,2.777 c0.124,0.062,0.174,0.212,0.112,0.335C38.68,63.699,38.592,63.75,38.5,63.75z"/><path fill="#472b29" d="M38.5,59.75c-0.038,0-0.076-0.009-0.111-0.026c-0.826-0.413-1.288-0.892-1.374-1.422 c-0.093-0.569,0.292-0.962,0.309-0.979c0.098-0.098,0.256-0.098,0.354,0s0.098,0.255,0.001,0.353 c-0.015,0.016-0.223,0.24-0.169,0.552c0.062,0.355,0.442,0.719,1.103,1.049c0.124,0.062,0.174,0.212,0.112,0.335 C38.68,59.699,38.592,59.75,38.5,59.75z"/><g><path fill="#472b29" d="M52.5,67.75c-0.138,0-0.25-0.112-0.25-0.25s0.112-0.25,0.25-0.25c0.564,0,1.371-1.654,1.763-2.829 c0.044-0.131,0.188-0.202,0.316-0.158c0.131,0.044,0.202,0.186,0.158,0.316C54.561,65.108,53.623,67.75,52.5,67.75z"/></g><g><path fill="#472b29" d="M43.5,66.75c-0.038,0-0.076-0.009-0.111-0.026c-0.124-0.062-0.174-0.212-0.112-0.335 c1.085-2.17,4.173-1.17,4.303-1.126c0.131,0.044,0.201,0.186,0.158,0.316c-0.044,0.132-0.184,0.205-0.316,0.158 c-0.027-0.009-2.808-0.904-3.697,0.874C43.68,66.699,43.592,66.75,43.5,66.75z"/></g><g><path fill="#472b29" d="M39.5,45.75c-0.138,0-0.25-0.112-0.25-0.25c0-0.614-1.142-1.416-1.862-1.776 c-0.123-0.062-0.173-0.212-0.111-0.336c0.062-0.123,0.214-0.172,0.335-0.111c0.22,0.109,2.139,1.102,2.139,2.224 C39.75,45.638,39.638,45.75,39.5,45.75z"/></g><g><path fill="#472b29" d="M42.5,50.75c-0.064,0-0.128-0.024-0.177-0.073c-0.044-0.044-1.073-1.086-1.073-2.177 c0-0.138,0.112-0.25,0.25-0.25s0.25,0.112,0.25,0.25c0,0.883,0.918,1.814,0.927,1.823c0.098,0.098,0.098,0.256,0,0.354 C42.628,50.726,42.563,50.75,42.5,50.75z"/></g><g><path fill="#472b29" d="M48.351,52.81c-0.49,0-0.855-0.057-0.891-0.063c-0.137-0.022-0.229-0.15-0.207-0.287 c0.022-0.136,0.144-0.229,0.287-0.207c0.018,0.004,1.877,0.294,2.74-0.48c0.313-0.281,0.453-0.666,0.428-1.177 c-0.007-0.138,0.1-0.256,0.237-0.263c0.166,0.01,0.256,0.1,0.263,0.237c0.033,0.663-0.167,1.192-0.596,1.576 C50,52.693,49.049,52.81,48.351,52.81z"/></g><g><path fill="#472b29" d="M36.5,56.75c-0.038,0-0.076-0.009-0.111-0.026c-0.124-0.062-0.174-0.212-0.112-0.335 c1.007-2.014,2.964-3.982,3.047-4.065c0.097-0.097,0.255-0.099,0.354,0c0.098,0.098,0.098,0.256,0,0.354 c-0.02,0.02-1.983,1.995-2.953,3.935C36.68,56.699,36.592,56.75,36.5,56.75z"/></g><g><ellipse cx="46.5" cy="49.5" fill="#fff" rx="2" ry="3" transform="rotate(-86.566 46.5 49.5)"/><path fill="#472b29" d="M46.654,51.754c-0.096,0-0.192-0.002-0.289-0.008c-0.849-0.051-1.637-0.321-2.218-0.762 c-0.612-0.464-0.929-1.06-0.892-1.679s0.423-1.174,1.085-1.561c0.631-0.366,1.449-0.54,2.294-0.491 c0.849,0.051,1.637,0.321,2.218,0.762c0.612,0.464,0.929,1.06,0.892,1.679c-0.037,0.62-0.423,1.174-1.085,1.561 C48.101,51.58,47.397,51.754,46.654,51.754z M46.344,47.745c-0.654,0-1.269,0.15-1.751,0.433c-0.514,0.299-0.811,0.71-0.837,1.157 c-0.027,0.447,0.219,0.892,0.693,1.25c0.504,0.382,1.194,0.617,1.945,0.661c0.748,0.053,1.466-0.104,2.013-0.424 c0.514-0.299,0.811-0.71,0.837-1.157l0,0c0.027-0.447-0.219-0.892-0.693-1.25c-0.504-0.382-1.194-0.617-1.945-0.661 C46.518,47.748,46.431,47.745,46.344,47.745z"/></g><g><ellipse cx="37" cy="52" fill="#fff" rx="2.5" ry="1.5" transform="rotate(-30 36.997 52.001)"/><path fill="#472b29" d="M36.04,54.053c-0.016,0-0.03,0-0.045,0c-0.642-0.011-1.131-0.252-1.377-0.678 c-0.49-0.85,0.172-2.119,1.507-2.891c0.602-0.347,1.251-0.537,1.835-0.537c0.016,0,0.03,0,0.045,0 c0.642,0.011,1.131,0.252,1.377,0.678c0.49,0.85-0.172,2.119-1.507,2.891C37.273,53.862,36.624,54.053,36.04,54.053z M37.96,50.447 c-0.497,0-1.059,0.166-1.585,0.471c-1.056,0.609-1.662,1.62-1.323,2.207c0.154,0.269,0.492,0.42,0.952,0.428 c0.487-0.009,1.082-0.159,1.621-0.471c1.056-0.609,1.662-1.62,1.323-2.207c-0.154-0.269-0.492-0.42-0.952-0.428 C37.984,50.447,37.972,50.447,37.96,50.447z"/></g><g><circle cx="38.406" cy="51.781" r="1.188" fill="#472b29"/></g><g><path fill="#472b29" d="M51.583,62.167c0,0-0.46-0.588-1.465-1.109c-1.135-0.587-2.967-1.088-5.618-0.558c-5,1-6,2-6,3 s1,2,3,1s5.958-1.917,8.375-0.292C52.499,65.973,52.583,63.167,51.583,62.167z"/></g><g><path fill="#fff" d="M38.708,63.958c0,0,5.167-3,12.875-1.792c-0.792-0.667-2-2.042-5.208-1.958 c-3.208,0.083-6.542,1.458-6.958,1.875C39,62.5,38.292,63.458,38.708,63.958z"/><path fill="#472b29" d="M38.708,64.208c-0.072,0-0.144-0.031-0.192-0.09c-0.533-0.641,0.205-1.692,0.725-2.212 c0.465-0.465,3.898-1.863,7.128-1.948c3.018-0.062,4.342,1.106,5.143,1.814c0.082,0.072,0.159,0.142,0.233,0.203 c0.086,0.072,0.113,0.193,0.066,0.295c-0.046,0.103-0.146,0.158-0.267,0.144c-7.521-1.181-12.659,1.729-12.711,1.76 C38.794,64.197,38.751,64.208,38.708,64.208z M46.652,60.454c-0.089,0-0.179,0.001-0.271,0.004 c-3.197,0.084-6.442,1.456-6.788,1.802c-0.376,0.376-0.779,0.983-0.761,1.35c1.088-0.548,5.623-2.567,11.947-1.807 C50.01,61.172,48.849,60.454,46.652,60.454z"/></g><g><path fill="#472b29" d="M51.754,65.563c-0.521,0-1.218-0.308-2.158-0.939c-2.245-1.51-6.02-0.603-7.872,0.324 c-1.499,0.748-2.424,0.426-2.845,0.168C38.329,64.775,38,64.171,38,63.5c0-1.569,1.854-2.581,6.402-3.49 c3.631-0.728,5.772,0.27,6.526,0.73c0.85,0.521,1.377,1.941,1.456,2.165c0.5,1.215,0.503,2.036,0.009,2.44 C52.218,65.49,52.007,65.563,51.754,65.563z M46.497,62.817c1.312,0,2.605,0.27,3.657,0.976c1.281,0.861,1.63,0.765,1.63,0.765 c0.004-0.055-0.003-0.495-0.329-1.283c-0.004-0.009-0.007-0.019-0.011-0.027c-0.174-0.5-0.61-1.392-1.038-1.653 c-0.511-0.313-2.434-1.277-5.809-0.604C40.831,61.744,39,62.564,39,63.5c0,0.322,0.151,0.607,0.405,0.765 c0.416,0.256,1.08,0.183,1.871-0.212C42.554,63.414,44.544,62.817,46.497,62.817z"/></g><g><path fill="#f6cca4" d="M50.75,71.333c-0.167,0.917-1.354,2.375-2.917,3.083"/><path fill="#472b29" d="M47.833,74.917c-0.189,0-0.372-0.109-0.455-0.293c-0.114-0.252-0.003-0.548,0.248-0.662 c1.5-0.681,2.509-2.039,2.632-2.719c0.05-0.272,0.313-0.449,0.582-0.402c0.271,0.05,0.451,0.311,0.402,0.582 c-0.19,1.047-1.47,2.663-3.202,3.449C47.973,74.902,47.902,74.917,47.833,74.917z"/></g><g><path fill="#fdfcef" d="M77.5,69.5c0,0,1.567,0,3.5,0s3.5-1.567,3.5-3.5c0-1.781-1.335-3.234-3.055-3.455 C81.473,62.366,81.5,62.187,81.5,62c0-1.933-1.567-3.5-3.5-3.5c-1.032,0-1.95,0.455-2.59,1.165 c-0.384-1.808-1.987-3.165-3.91-3.165c-2.209,0-4,1.791-4,4c0,0.191,0.03,0.374,0.056,0.558C67.128,60.714,66.592,60.5,66,60.5 c-1.228,0-2.245,0.887-2.455,2.055C63.366,62.527,63.187,62.5,63,62.5c-1.933,0-3.5,1.567-3.5,3.5s1.567,3.5,3.5,3.5s7.5,0,7.5,0 V70h7V69.5z"/><path fill="#472b29" d="M79.25,65C79.112,65,79,64.888,79,64.75c0-1.223,0.995-2.218,2.218-2.218 c0.034,0.009,0.737-0.001,1.244,0.136c0.133,0.036,0.212,0.173,0.176,0.306c-0.036,0.134-0.173,0.213-0.306,0.176 c-0.444-0.12-1.1-0.12-1.113-0.118c-0.948,0-1.719,0.771-1.719,1.718C79.5,64.888,79.388,65,79.25,65z"/><circle cx="72.5" cy="69.5" r=".5" fill="#472b29"/><path fill="#472b29" d="M81,70h-3.5c-0.276,0-0.5-0.224-0.5-0.5s0.224-0.5,0.5-0.5H81c1.654,0,3-1.346,3-3 c0-1.496-1.125-2.768-2.618-2.959c-0.134-0.018-0.255-0.088-0.336-0.196s-0.115-0.244-0.094-0.377C80.975,62.314,81,62.16,81,62 c0-1.654-1.346-3-3-3c-0.85,0-1.638,0.355-2.219,1c-0.125,0.139-0.321,0.198-0.5,0.148c-0.182-0.049-0.321-0.195-0.36-0.379 C74.58,58.165,73.141,57,71.5,57c-1.93,0-3.5,1.57-3.5,3.5c0,0.143,0.021,0.28,0.041,0.418c0.029,0.203-0.063,0.438-0.242,0.54 c-0.179,0.102-0.396,0.118-0.556-0.01C66.878,61.155,66.449,61,66,61c-0.966,0-1.792,0.691-1.963,1.644 c-0.048,0.267-0.296,0.446-0.569,0.405C63.314,63.025,63.16,63,63,63c-1.654,0-3,1.346-3,3s1.346,3,3,3h7.5 c0.276,0,0.5,0.224,0.5,0.5S70.776,70,70.5,70H63c-2.206,0-4-1.794-4-4s1.794-4,4-4c0.059,0,0.116,0.002,0.174,0.006 C63.588,60.82,64.711,60,66,60c0.349,0,0.689,0.061,1.011,0.18C67.176,57.847,69.126,56,71.5,56c1.831,0,3.466,1.127,4.153,2.774 C76.333,58.276,77.155,58,78,58c2.206,0,4,1.794,4,4c0,0.048-0.001,0.095-0.004,0.142C83.739,62.59,85,64.169,85,66 C85,68.206,83.206,70,81,70z"/><path fill="#472b29" d="M75.5,69c-0.159,0-0.841,0-1,0c-0.276,0-0.5,0.224-0.5,0.5c0,0.276,0.224,0.5,0.5,0.5 c0.159,0,0.841,0,1,0c0.276,0,0.5-0.224,0.5-0.5C76,69.224,75.776,69,75.5,69z"/></g><g><path fill="#472b29" d="M47.887,51.187l1.114-0.724l0.634-0.947c-0.14-0.48-0.512-0.881-1.029-1.027 c-0.797-0.225-1.626,0.238-1.851,1.035c-0.216,0.765,0.206,1.554,0.945,1.816L47.887,51.187z"/></g><g><path fill="#472b29" d="M42.576,41.054c-0.096,0-0.187-0.055-0.229-0.148c-0.056-0.126,0-0.273,0.126-0.33 c0.538-0.24,1.109-0.405,1.699-0.489c0.133-0.02,0.263,0.074,0.282,0.212c0.021,0.137-0.075,0.263-0.212,0.282 c-0.543,0.078-1.069,0.23-1.565,0.452C42.646,41.047,42.61,41.054,42.576,41.054z"/></g><g><path fill="#472b29" d="M40.875,44.833c-0.093,0-0.182-0.052-0.225-0.141c-0.089-0.182-0.847-1.799-0.223-2.597 c0.278-0.354,0.681-0.715,1.135-1.019c0.111-0.076,0.271-0.047,0.347,0.069c0.076,0.114,0.046,0.27-0.069,0.347 c-0.411,0.274-0.772,0.599-1.019,0.911c-0.366,0.469,0.09,1.682,0.278,2.069c0.061,0.124,0.009,0.273-0.115,0.334 C40.949,44.825,40.912,44.833,40.875,44.833z"/></g><g><path fill="#472b29" d="M55.417,66.708c-0.063,0-0.124-0.023-0.173-0.069c-0.1-0.096-0.104-0.254-0.008-0.354 c0.794-0.831,0.765-2.223,0.764-2.236c-0.004-0.138,0.105-0.253,0.243-0.257c0.002,0,0.005,0,0.007,0 c0.135,0,0.246,0.107,0.25,0.243c0.002,0.065,0.034,1.615-0.902,2.596C55.549,66.682,55.482,66.708,55.417,66.708z"/></g><g><path fill="#472b29" d="M39.063,30.438c-0.079,0-0.158-0.038-0.206-0.108c-0.078-0.114-0.049-0.27,0.064-0.348 c0.979-0.67,3.101-1.301,5.538-1.646c0.133-0.028,0.263,0.075,0.282,0.212s-0.075,0.264-0.212,0.282 c-2.366,0.335-4.406,0.935-5.325,1.563C39.16,30.424,39.111,30.438,39.063,30.438z"/></g><g><path fill="#472b29" d="M64.634,35.62c-0.084,0-0.167-0.043-0.214-0.12c-4.157-6.863-13.477-7.13-17.284-6.921 c-0.158,0.003-0.256-0.1-0.264-0.236c-0.007-0.138,0.099-0.256,0.236-0.264c3.904-0.21,13.442,0.069,17.739,7.161 c0.071,0.118,0.034,0.272-0.084,0.344C64.723,35.608,64.678,35.62,64.634,35.62z"/></g><g><path fill="#472b29" d="M66.313,40c-0.116,0-0.221-0.081-0.245-0.199c-0.191-0.931-0.462-1.818-0.805-2.639 c-0.054-0.128,0.007-0.274,0.134-0.327c0.131-0.054,0.273,0.007,0.327,0.134c0.355,0.85,0.636,1.769,0.834,2.73 c0.027,0.136-0.06,0.268-0.194,0.296C66.346,39.998,66.329,40,66.313,40z"/></g></svg>